# Blender 4.4.3
# www.blender.org
mtllib Mi_24_chasis_Back_Heli.mtl
o polySurface233.001
v 0.049405 -0.148936 -0.009737
v 0.049405 -0.148887 0.034348
v 0.036979 -0.155096 0.037942
v 0.036979 -0.155153 -0.013318
v 0.024554 -0.148887 0.034348
v 0.024554 -0.148936 -0.009737
v 0.055411 -0.052586 -0.020586
v 0.055411 -0.052334 0.044817
v 0.047381 -0.098955 0.030702
v 0.047381 -0.098998 -0.006204
v 0.036979 -0.061531 0.050173
v 0.036979 -0.104153 0.033711
v 0.036979 -0.061823 -0.025871
v 0.036979 -0.104201 -0.009201
v 0.018546 -0.052334 0.044817
v 0.026579 -0.098955 0.030702
v 0.018546 -0.052586 -0.020586
v 0.026579 -0.098998 -0.006204
v 0.049405 -0.105116 0.034299
v 0.049405 -0.105166 -0.009787
v 0.036979 -0.111325 0.037892
v 0.036979 -0.111383 -0.013367
v 0.024554 -0.105117 0.034299
v 0.024554 -0.105166 -0.009787
v 0.036979 0.004402 0.045138
v 0.036979 0.033284 0.028210
v 0.055411 0.042534 0.033470
v 0.055411 0.004473 0.055780
v 0.036979 -0.024698 0.028591
v 0.055411 -0.033879 0.033972
v 0.036979 -0.024918 -0.004885
v 0.055411 -0.034171 -0.010146
v 0.036979 0.003963 -0.021814
v 0.055411 0.003892 -0.032455
v 0.036979 0.033063 -0.005267
v 0.055411 0.042245 -0.010648
v 0.055411 0.061036 0.043992
v 0.055411 0.004613 0.077065
v 0.055411 0.003773 -0.053424
v 0.055411 0.060639 -0.021119
v 0.049403 0.062579 0.154883
v 0.049403 0.100613 0.132589
v 0.036979 0.106849 0.136136
v 0.036979 0.062629 0.162057
v 0.036979 0.004684 0.087707
v 0.036979 0.003697 -0.064065
v 0.036979 0.069819 -0.026503
v 0.036979 0.070288 0.049252
v 0.024554 0.100616 0.132589
v 0.024554 0.062579 0.154883
v 0.018546 0.004613 0.077065
v 0.018546 0.003773 -0.053424
v 0.018546 0.060639 -0.021119
v 0.018546 0.061036 0.043992
v 0.018546 0.042534 0.033470
v 0.018546 0.004473 0.055780
v 0.018546 -0.033879 0.033972
v 0.018546 -0.034171 -0.010146
v 0.018546 0.003892 -0.032455
v 0.018546 0.042245 -0.010648
v 0.047381 0.072265 0.091324
v 0.047381 0.040427 0.109987
v 0.036979 0.077487 0.094293
v 0.036979 0.040465 0.115993
v 0.026579 0.072265 0.091324
v 0.026579 0.040427 0.109986
v 0.049405 0.078481 0.094828
v 0.049405 0.040447 0.117121
v 0.036979 0.084718 0.098374
v 0.036979 0.040494 0.124294
v 0.024554 0.078481 0.094828
v 0.024554 0.040447 0.117121
v 0.049405 0.099011 -0.109967
v 0.049405 0.060670 -0.131729
v 0.036979 0.060618 -0.138902
v 0.036979 0.105197 -0.113600
v 0.024554 0.060670 -0.131729
v 0.024554 0.099011 -0.109967
v 0.047381 0.039145 -0.086528
v 0.047381 0.071240 -0.068312
v 0.036979 0.039100 -0.092533
v 0.036979 0.076418 -0.071352
v 0.026579 0.039145 -0.086529
v 0.026579 0.071240 -0.068312
v 0.049405 0.039064 -0.093662
v 0.049405 0.077406 -0.071901
v 0.036979 0.039012 -0.100835
v 0.036979 0.083592 -0.075532
v 0.024554 0.039064 -0.093662
v 0.024554 0.077406 -0.071901
v 0.070556 0.101996 -0.039536
v 0.070143 0.116681 -0.001472
v 0.088993 0.116539 -0.001212
v 0.089408 0.101853 -0.039276
v 0.069510 0.103463 0.037122
v 0.088360 0.103319 0.037384
v 0.069079 0.048738 0.038301
v 0.068523 0.013800 0.059368
v 0.087373 0.013659 0.059628
v 0.087929 0.048595 0.038561
v 0.067690 -0.010544 0.106286
v 0.067472 -0.050852 0.099966
v 0.086323 -0.050995 0.100226
v 0.086542 -0.010687 0.106545
v 0.067694 -0.077670 0.069217
v 0.086545 -0.077811 0.069479
v 0.068525 -0.053326 0.022301
v 0.069082 -0.054104 -0.018487
v 0.087934 -0.054248 -0.018228
v 0.087377 -0.053467 0.022562
v 0.069465 -0.083925 -0.062599
v 0.070114 -0.059442 -0.096110
v 0.088964 -0.059586 -0.095850
v 0.088317 -0.084069 -0.062339
v 0.070525 -0.019406 -0.103956
v 0.089377 -0.019549 -0.103696
v 0.070127 0.011556 -0.058080
v 0.070125 0.047272 -0.038358
v 0.088977 0.047129 -0.038096
v 0.088978 0.011412 -0.057820
v 0.110290 0.018220 -0.013717
v 0.110142 0.023455 -0.000144
v 0.109975 0.002193 0.000259
v 0.109917 0.018744 0.013615
v 0.109719 0.006285 0.021127
v 0.109641 -0.008085 0.018874
v 0.109720 -0.017648 0.007911
v 0.109919 -0.017926 -0.006633
v 0.110144 -0.008790 -0.017951
v 0.110290 0.005484 -0.020749
v 0.088562 0.061813 -0.000032
v 0.087155 -0.026649 0.053309
v 0.088567 -0.028624 -0.049973
v 0.068305 -0.026507 0.053048
v 0.069715 -0.028481 -0.050234
v 0.069712 0.061956 -0.000294
v 0.069708 0.027150 -0.020873
v 0.069483 0.035082 -0.000315
v 0.069142 0.027943 0.020531
v 0.068841 0.009074 0.031909
v 0.068723 -0.012699 0.028496
v 0.068843 -0.027183 0.011889
v 0.069144 -0.027604 -0.010142
v 0.069486 -0.013765 -0.027287
v 0.069708 0.007860 -0.031526
v -0.032822 0.027150 -0.020873
v -0.033044 0.035082 -0.000315
v -0.033386 0.027943 0.020531
v -0.033686 0.009074 0.031909
v -0.033805 -0.012699 0.028496
v -0.033686 -0.027183 0.011889
v -0.033385 -0.027604 -0.010142
v -0.033042 -0.013765 -0.027287
v -0.032820 0.007860 -0.031526
v 0.092683 -0.030019 0.065104
v 0.092683 -0.045030 0.069983
v 0.000264 -0.045030 0.069983
v 0.000264 -0.030019 0.065104
v 0.092683 -0.045030 0.085765
v 0.000264 -0.045030 0.085765
v 0.092683 -0.030019 0.090642
v 0.000264 -0.030019 0.090642
v 0.092683 -0.020741 0.077873
v 0.000264 -0.020741 0.077873
v 0.092683 -0.034167 0.077873
v 0.092683 0.085961 -0.011591
v 0.092683 0.070952 -0.006716
v 0.000264 0.070952 -0.006716
v 0.000264 0.085961 -0.011591
v 0.092683 0.070952 0.009068
v 0.000264 0.070952 0.009068
v 0.092683 0.085961 0.013944
v 0.000264 0.085961 0.013944
v 0.092683 0.095239 0.001176
v 0.000264 0.095239 0.001176
v 0.092683 0.081815 0.001176
v 0.092683 -0.033760 -0.078936
v 0.092683 -0.048769 -0.074059
v 0.000264 -0.048769 -0.074059
v 0.000264 -0.033760 -0.078936
v 0.092683 -0.048769 -0.058276
v 0.000264 -0.048769 -0.058276
v 0.092683 -0.033760 -0.053399
v 0.000264 -0.033760 -0.053399
v 0.092683 -0.024482 -0.066168
v 0.000264 -0.024482 -0.066168
v 0.092683 -0.037908 -0.066168
v 0.026760 -0.146473 -0.026975
v 0.035706 -0.134790 0.048539
v 0.046789 -0.134790 0.048539
v 0.030890 -0.146473 -0.026975
v 0.046789 -0.235229 0.048401
v 0.030890 -0.235087 -0.054448
v 0.030890 -0.874049 -0.055330
v 0.046789 -0.874189 0.047520
v 0.035706 -0.874189 0.047520
v 0.026760 -0.874049 -0.055330
v 0.035706 -0.235229 0.048401
v 0.026760 -0.235087 -0.054448
v 0.026760 0.101434 -0.091431
v 0.035706 0.031092 -0.121282
v 0.046789 0.031092 -0.121282
v 0.030890 0.101434 -0.091431
v 0.046789 0.084122 -0.206581
v 0.030890 0.171468 -0.152277
v 0.030890 0.508829 -0.694918
v 0.046789 0.421485 -0.749221
v 0.035706 0.421485 -0.749221
v 0.026760 0.508829 -0.694918
v 0.035706 0.084122 -0.206581
v 0.026760 0.171468 -0.152277
v 0.026760 0.040607 0.149248
v 0.035706 0.098029 0.098836
v 0.046789 0.098029 0.098836
v 0.030890 0.040607 0.149248
v 0.046789 0.151856 0.183635
v 0.030890 0.065023 0.238753
v 0.030890 0.407445 0.778214
v 0.046789 0.494278 0.723096
v 0.035706 0.494278 0.723096
v 0.026760 0.407445 0.778214
v 0.035706 0.151856 0.183635
v 0.026760 0.065023 0.238753
vn 0.4472 -0.8944 0.0010
vn -0.4472 -0.8944 0.0010
vn 0.9854 -0.1701 0.0005
vn 0.9854 -0.1703 0.0007
vn 0.4109 -0.3283 0.8505
vn 0.4105 -0.3285 0.8506
vn 0.4110 -0.3283 0.8505
vn 0.4108 -0.3339 -0.8484
vn 0.4112 -0.3337 -0.8483
vn 0.4113 -0.3337 -0.8482
vn -0.4108 -0.3283 0.8505
vn -0.4105 -0.3285 0.8507
vn -0.4103 -0.3286 0.8507
vn -0.9854 -0.1701 0.0005
vn -0.9854 -0.1702 0.0005
vn -0.9855 -0.1699 0.0002
vn -0.4107 -0.3339 -0.8484
vn -0.4112 -0.3337 -0.8483
vn -0.4106 -0.3340 -0.8484
vn 0.9501 0.3119 -0.0004
vn 0.9501 0.3120 -0.0004
vn -0.0000 0.5037 0.8639
vn -0.0018 0.5037 0.8639
vn -0.0018 0.5038 0.8638
vn -0.0000 0.5018 -0.8650
vn -0.0018 0.5018 -0.8650
vn 0.0018 0.5037 0.8639
vn -0.0000 0.5036 0.8639
vn -0.9501 0.3120 -0.0003
vn -0.9501 0.3119 -0.0004
vn 0.0018 0.5018 -0.8650
vn 1.0000 -0.0000 -0.0000
vn 0.2773 0.0011 0.9608
vn 0.2774 -0.0011 -0.9608
vn -0.2773 0.0011 0.9608
vn -0.2774 0.0011 0.9608
vn -1.0000 -0.0000 -0.0000
vn -0.2774 -0.0011 -0.9608
vn 0.4473 -0.4523 -0.7716
vn 0.4472 -0.4523 -0.7716
vn 0.4472 0.4421 -0.7775
vn 0.4473 0.8944 -0.0059
vn 0.4473 0.4523 0.7716
vn 0.4472 -0.4421 0.7775
vn 0.4473 -0.8944 0.0059
vn 0.4472 -0.8944 0.0059
vn 0.4466 -0.4412 0.7784
vn 0.4474 -0.4408 0.7782
vn 0.4464 -0.4413 0.7785
vn 0.4474 -0.4504 -0.7727
vn 0.4478 -0.4502 -0.7726
vn 0.4479 -0.4501 -0.7725
vn 0.4472 0.8944 -0.0055
vn 0.4473 0.8944 -0.0055
vn 0.4474 0.8943 -0.0055
vn -0.4472 0.4523 0.7716
vn -0.4473 0.4523 0.7716
vn -0.4473 -0.4408 0.7782
vn -0.4465 -0.4412 0.7784
vn -0.4463 -0.4413 0.7785
vn -0.4477 -0.4502 -0.7726
vn -0.4473 -0.4504 -0.7727
vn -0.4478 -0.4501 -0.7725
vn -0.4473 0.8944 -0.0055
vn -0.4471 0.8945 -0.0055
vn -0.4472 -0.4523 -0.7717
vn -0.4472 -0.4523 -0.7716
vn -0.4472 0.4421 -0.7775
vn -0.4472 0.8944 -0.0059
vn -0.4473 0.8944 -0.0059
vn -0.4472 -0.4421 0.7775
vn -0.4472 -0.8944 0.0059
vn -0.4471 -0.8944 0.0059
vn 0.9854 0.0860 0.1468
vn 0.4109 0.9003 -0.1439
vn 0.4108 -0.5654 0.7152
vn -0.4108 0.9003 -0.1439
vn -0.4109 0.9003 -0.1439
vn -0.4109 0.9002 -0.1439
vn -0.9854 0.0861 0.1468
vn -0.4108 -0.5654 0.7153
vn -0.4109 -0.5654 0.7152
vn 0.9501 -0.1577 -0.2691
vn -0.0000 0.4915 -0.8709
vn -0.0018 0.4915 -0.8709
vn -0.0000 -1.0000 0.0035
vn -0.0018 -1.0000 0.0035
vn 0.0018 0.4915 -0.8709
vn -0.0000 0.4916 -0.8708
vn -0.9501 -0.1577 -0.2691
vn 0.0018 -1.0000 0.0035
vn 0.0018 -1.0000 0.0034
vn 0.2774 0.8289 -0.4858
vn 0.2773 -0.8289 0.4858
vn 0.2772 -0.8289 0.4859
vn -0.2773 0.8289 -0.4858
vn -0.2772 0.8289 -0.4858
vn -0.2773 -0.8289 0.4858
vn 0.4472 0.4415 -0.7779
vn -0.4472 0.4415 -0.7779
vn -0.4472 0.4415 -0.7778
vn 0.9853 0.0844 -0.1487
vn 0.4123 -0.5709 -0.7100
vn 0.4105 0.9021 0.1328
vn 0.4104 0.9022 0.1328
vn 0.4104 0.9022 0.1327
vn -0.4122 -0.5709 -0.7100
vn -0.4123 -0.5709 -0.7100
vn -0.9853 0.0845 -0.1488
vn -0.4105 0.9022 0.1328
vn -0.4104 0.9022 0.1328
vn -0.4105 0.9021 0.1328
vn 0.9501 -0.1540 0.2713
vn -0.0000 -0.9999 0.0106
vn -0.0019 -0.9999 0.0107
vn -0.0000 0.5035 0.8640
vn -0.0018 0.5035 0.8640
vn 0.0019 -0.9999 0.0107
vn -0.9501 -0.1540 0.2713
vn 0.0018 0.5035 0.8640
vn 0.2773 -0.8356 -0.4743
vn 0.2774 0.8356 0.4742
vn 0.2773 0.8356 0.4742
vn -0.2773 -0.8356 -0.4743
vn -0.2774 0.8356 0.4742
vn 0.0120 0.9330 -0.3598
vn 0.0027 0.9460 0.3241
vn -0.0079 0.5165 0.8563
vn -0.0079 0.5164 0.8563
vn -0.0148 -0.1548 0.9878
vn -0.0148 -0.7536 0.6572
vn -0.0078 -0.9998 0.0190
vn -0.0079 -0.9998 0.0190
vn -0.0077 -0.9998 0.0190
vn 0.0020 -0.8075 -0.5899
vn 0.0121 -0.1924 -0.9812
vn 0.0158 0.4833 -0.8753
vn 0.9999 -0.0076 0.0138
vn 0.8576 0.4830 -0.1770
vn 0.8577 0.4820 0.1791
vn 0.8565 0.2565 0.4480
vn 0.8546 -0.0849 0.5123
vn 0.8530 -0.3903 0.3466
vn 0.8522 -0.5227 0.0216
vn 0.8522 -0.5227 0.0217
vn 0.8527 -0.4147 -0.3177
vn 0.8527 -0.4146 -0.3178
vn 0.8542 -0.1085 -0.5084
vn 0.8562 0.2498 -0.4523
vn -0.9999 0.0074 -0.0135
vn -0.9999 0.0076 -0.0138
vn -0.9999 0.0077 -0.0132
vn 0.0003 0.8876 0.4606
vn 0.0004 0.8876 0.4606
vn -0.0003 -0.8876 -0.4606
vn -0.9999 0.0074 -0.0141
vn -0.9999 0.0070 -0.0140
vn -0.0140 -0.8284 0.5599
vn 0.0140 0.8289 -0.5593
vn -0.9999 0.0079 -0.0138
vn -0.9999 0.0080 -0.0142
vn 0.0137 -0.0216 -0.9997
vn 0.0136 -0.0216 -0.9997
vn -0.0136 0.0216 0.9997
vn -0.0137 0.0216 0.9997
vn -0.9999 0.0085 -0.0138
vn -0.9999 0.0083 -0.0132
vn -0.9999 0.0080 -0.0134
vn -0.9999 0.0078 -0.0129
vn -0.9999 0.0072 -0.0130
vn -0.9999 0.0070 -0.0136
vn -0.9999 0.0068 -0.0135
vn -0.9999 0.0067 -0.0141
vn -0.9999 0.0071 -0.0146
vn -0.9999 0.0077 -0.0144
vn -0.9999 0.0077 -0.0147
vn -0.9999 0.0083 -0.0144
vn -0.0000 0.9330 -0.3600
vn -0.0000 0.9461 0.3240
vn -0.0000 0.5164 0.8564
vn -0.0000 -0.1549 0.9879
vn -0.0000 -0.7537 0.6573
vn -0.0000 -0.9998 0.0191
vn -0.0000 -0.7781 -0.6281
vn -0.0000 -0.1923 -0.9813
vn -0.0000 0.4834 -0.8754
vn -0.0000 -0.3091 -0.9510
vn -0.0000 -1.0000 -0.0000
vn -0.0000 -0.3090 0.9511
vn -0.0000 0.8090 0.5878
vn -0.0000 0.8090 -0.5878
vn -0.0000 -0.3090 -0.9511
vn -0.0000 0.8090 0.5879
vn -0.0000 0.8090 -0.5879
vn -0.0000 0.9882 -0.1529
vn 0.9835 0.0239 -0.1794
vn 0.9862 0.0131 -0.1649
vn 0.9878 0.0226 -0.1539
vn -0.0000 -1.0000 -0.0014
vn -0.9962 -0.0001 0.0867
vn -0.9961 -0.0126 0.0872
vn -0.0000 -0.0014 1.0000
vn -0.0000 0.0014 -1.0000
vn -0.0000 0.1504 -0.9886
vn 0.9883 0.0002 -0.1528
vn -0.9956 -0.0075 0.0937
vn -0.9947 -0.0134 0.1022
vn -0.0000 0.2961 -0.9551
vn -0.0000 -0.3907 0.9205
vn 0.9835 0.1399 0.1148
vn 0.9862 0.1333 0.0980
vn 0.9878 0.1189 0.1004
vn -0.0000 0.5280 -0.8492
vn -0.9962 -0.0736 -0.0458
vn -0.9961 -0.0675 -0.0567
vn -0.0000 -0.8493 -0.5280
vn -0.0000 0.8493 0.5280
vn -0.0000 0.7611 0.6487
vn 0.9883 0.1297 0.0807
vn -0.9956 -0.0757 -0.0557
vn -0.9947 -0.0798 -0.0653
vn -0.0000 0.6559 0.7549
vn -0.0000 -0.6597 -0.7515
vn 0.9835 -0.1641 0.0762
vn 0.9862 -0.1461 0.0776
vn 0.9878 -0.1420 0.0636
vn -0.0000 0.5359 0.8443
vn -0.9962 0.0732 -0.0464
vn -0.9961 0.0805 -0.0361
vn -0.0000 0.8443 -0.5359
vn -0.0000 -0.8443 0.5359
vn -0.0000 -0.9147 0.4041
vn 0.9883 -0.1290 0.0819
vn -0.9956 0.0830 -0.0440
vn -0.9947 0.0935 -0.0436
vn -0.0000 -0.9647 0.2632
vn 0.9855 -0.1698 0.0002
vn 0.4103 -0.3286 0.8507
vn 0.4107 -0.3340 -0.8484
vn -0.4109 -0.3283 0.8505
vn -0.9854 -0.1703 0.0007
vn -0.4113 -0.3337 -0.8482
vn 0.2774 0.0011 0.9608
vn 0.4472 -0.4523 -0.7717
vn 0.4472 0.8944 -0.0059
vn 0.4472 0.4523 0.7716
vn 0.4476 -0.4406 0.7781
vn 0.4473 -0.4504 -0.7727
vn 0.4471 0.8945 -0.0055
vn -0.4472 0.4523 0.7717
vn -0.4476 -0.4406 0.7782
vn 0.4106 0.9004 -0.1439
vn -0.0018 -1.0000 0.0034
vn -0.2773 0.8289 -0.4859
vn 0.9853 0.0845 -0.1487
vn -0.9853 0.0844 -0.1487
vn -0.4104 0.9022 0.1327
vn -0.2773 0.8356 0.4742
vn 0.8575 0.4830 -0.1770
vn 0.8565 0.2565 0.4479
vn 0.8546 -0.0850 0.5123
vn 0.8542 -0.1084 -0.5084
vn 0.8562 0.2497 -0.4523
vn 0.9785 0.0003 -0.2061
vn -0.9931 -0.0002 0.1177
vn 0.9785 0.1750 0.1088
vn -0.9931 -0.0999 -0.0621
vn 0.9785 -0.1740 0.1104
vn -0.9931 0.0994 -0.0631
vt 0.984263 0.834451
vt 0.974019 0.826163
vt 0.986570 0.831393
vt 0.918370 0.883877
vt 0.920364 0.870851
vt 0.921920 0.882437
vt 0.960463 0.853369
vt 0.978407 0.846896
vt 0.976851 0.860153
vt 0.958094 0.848316
vt 0.968762 0.842876
vt 0.982099 0.858251
vt 0.981795 0.846437
vt 0.942039 0.860732
vt 0.934063 0.869638
vt 0.931961 0.866942
vt 0.946321 0.864313
vt 0.935455 0.879994
vt 0.945499 0.886479
vt 0.948683 0.881895
vt 0.979531 0.845124
vt 0.966699 0.840150
vt 0.969226 0.840831
vt 0.983115 0.844874
vt 0.931967 0.869559
vt 0.929947 0.866589
vt 0.934139 0.883149
vt 0.933454 0.880623
vt 0.973473 0.829956
vt 0.966879 0.838111
vt 0.988060 0.834378
vt 0.918388 0.867608
vt 0.932288 0.884020
vt 0.955378 0.867996
vt 0.952798 0.878766
vt 0.951116 0.866247
vt 0.961126 0.858527
vt 0.961737 0.863092
vt 0.969163 0.866143
vt 0.972808 0.863328
vt 0.974490 0.875856
vt 0.970232 0.874102
vt 0.964490 0.883571
vt 0.963874 0.879008
vt 0.956447 0.875954
vt 0.979178 0.877826
vt 0.965140 0.888669
vt 0.921921 0.882437
vt 0.916560 0.870401
vt 0.920365 0.870852
vt 0.942038 0.860732
vt 0.984739 0.878302
vt 0.945498 0.886480
vt 0.964177 0.894166
vt 0.965140 0.888668
vt 0.979178 0.877827
vt 0.976852 0.860153
vt 0.951117 0.866247
vt 0.972809 0.863328
vt 0.969163 0.866144
vt 0.963874 0.879007
vt 0.970231 0.874103
vt 0.934064 0.869638
vt 0.978408 0.846896
vt 0.981796 0.846437
vt 0.929947 0.866590
vt 0.979532 0.845124
vt 0.918388 0.867609
vt 0.984262 0.834450
vt 0.966879 0.838112
vt 0.983713 0.907844
vt 0.995988 0.903054
vt 0.985225 0.911363
vt 0.995988 0.903055
vt 0.983714 0.907844
vt 0.992966 0.900701
vt 0.984079 0.890202
vt 0.975809 0.896591
vt 0.964178 0.894166
vt 0.974526 0.899759
vt 0.975810 0.896591
vt 0.985625 0.891622
vt 0.976789 0.898445
vt 0.987471 0.889769
vt 0.975229 0.901680
vt 0.975230 0.901681
vt 0.987471 0.889768
vt 0.989150 0.890934
vt 0.992965 0.900700
vt 0.981894 0.911178
vt 0.832371 0.099985
vt 0.816129 0.107328
vt 0.826195 0.094534
vt 0.804042 0.120426
vt 0.820424 0.113279
vt 0.781089 0.100856
vt 0.768685 0.086979
vt 0.785794 0.094628
vt 0.738053 0.090882
vt 0.739916 0.073158
vt 0.745873 0.088295
vt 0.732608 0.073863
vt 0.742862 0.057146
vt 0.762143 0.045771
vt 0.780426 0.041893
vt 0.765271 0.052924
vt 0.791720 0.012957
vt 0.806789 0.022833
vt 0.790356 0.021099
vt 0.824092 0.026822
vt 0.809673 0.016147
vt 0.820942 0.072048
vt 0.811599 0.056034
vt 0.819375 0.056850
vt 0.796169 0.069705
vt 0.792873 0.074471
vt 0.787930 0.067659
vt 0.787300 0.076123
vt 0.782042 0.073777
vt 0.779566 0.068505
vt 0.780951 0.062839
vt 0.785614 0.059478
vt 0.791383 0.059987
vt 0.795574 0.064001
vt 0.813541 0.074603
vt 0.803030 0.089281
vt 0.761263 0.070510
vt 0.798415 0.043746
vt 0.903731 0.851170
vt 0.905899 0.868964
vt 0.892639 0.858249
vt 0.746108 0.095852
vt 0.920940 0.849338
vt 0.916989 0.861887
vt 0.741278 0.049730
vt 0.890971 0.820397
vt 0.905744 0.809568
vt 0.902648 0.826461
vt 0.783630 0.017665
vt 0.881331 0.805704
vt 0.894172 0.802838
vt 0.826388 0.035671
vt 0.819121 0.033423
vt 0.870699 0.846843
vt 0.853802 0.840405
vt 0.870129 0.833700
vt 0.863260 0.863254
vt 0.854371 0.853551
vt 0.800814 0.112846
vt 0.795084 0.117809
vt 0.878639 0.843369
vt 0.883439 0.848605
vt 0.879589 0.856544
vt 0.890485 0.849525
vt 0.896478 0.845699
vt 0.907685 0.838619
vt 0.898615 0.838917
vt 0.895896 0.832353
vt 0.889592 0.829079
vt 0.878130 0.823261
vt 0.882656 0.830627
vt 0.878332 0.836269
vt 0.412894 0.367209
vt 0.381051 0.374416
vt 0.380910 0.367541
vt 0.412716 0.360338
vt 0.380732 0.360667
vt 0.412552 0.353467
vt 0.380568 0.353792
vt 0.412446 0.346594
vt 0.380462 0.346916
vt 0.532675 0.048143
vt 0.490004 0.040087
vt 0.532493 0.039011
vt 0.489899 0.030951
vt 0.532387 0.029879
vt 0.489810 0.021816
vt 0.532299 0.020745
vt 0.489672 0.012680
vt 0.532161 0.011612
vt 0.531932 0.002480
vt 0.489442 0.003547
vt 0.289159 0.226513
vt 0.341609 0.237218
vt 0.289123 0.237037
vt 0.289014 0.268610
vt 0.341464 0.279314
vt 0.288978 0.279133
vt 0.289050 0.258086
vt 0.341500 0.268791
vt 0.289086 0.247561
vt 0.341536 0.258267
vt 0.341573 0.247742
vt 0.349480 0.321496
vt 0.361022 0.316304
vt 0.358825 0.326844
vt 0.350852 0.334078
vt 0.363242 0.336662
vt 0.369527 0.325677
vt 0.010771 0.781122
vt 0.044590 0.777826
vt 0.044529 0.775999
vt 0.044529 0.775998
vt 0.010917 0.736538
vt 0.056730 0.736768
vt 0.058506 0.451456
vt 0.012840 0.452975
vt 0.058650 0.453293
vt 0.056730 0.736769
vt 0.005859 0.781099
vt 0.058514 0.737043
vt 0.060485 0.453338
vt 0.058651 0.453293
vt 0.005990 0.736515
vt 0.007932 0.452949
vt 0.046296 0.776516
vt 0.916560 0.870400
vt 0.970850 0.827208
vt 0.920870 0.886086
vt 0.920870 0.886087
vt 0.985225 0.911364
vt 0.996651 0.899784
vt 0.996652 0.899785
vt 0.767246 0.094659
vt 0.734690 0.056115
vt 0.774433 0.036876
vt 0.832694 0.090631
vt 0.413035 0.374082
vt 0.490186 0.049221
vt 0.341645 0.226694
vt 0.010942 0.786044
vt 0.010771 0.781121
vt 0.012444 0.448081
s 1
usemtl phong1SG.002
f 1/1/1 3/2/1 4/3/1
f 4/4/2 5/5/2 6/6/2
f 8/7/3 10/8/3 7/9/4
f 11/10/5 9/11/6 8/7/7
f 13/12/8 10/8/9 14/13/10
f 11/14/11 16/15/12 12/16/13
f 15/17/14 18/18/15 16/15/16
f 13/19/17 18/18/18 17/20/19
f 9/11/20 20/21/21 10/8/21
f 12/22/22 19/23/23 9/11/24
f 14/13/25 20/21/26 22/24/25
f 12/16/22 23/25/27 21/26/28
f 18/18/29 23/25/30 16/15/30
f 14/27/25 24/28/31 18/18/31
f 20/21/32 2/29/32 1/1/32
f 21/30/33 2/29/33 19/23/33
f 22/24/34 1/1/34 4/31/34
f 21/26/35 5/5/35 3/32/36
f 23/25/37 6/6/37 5/5/37
f 22/33/38 6/6/38 24/28/38
f 25/34/39 27/35/40 28/36/39
f 25/34/41 30/37/41 29/38/41
f 31/39/42 30/37/42 32/40/42
f 31/39/43 34/41/43 33/42/43
f 33/42/44 36/43/44 35/44/44
f 35/44/45 27/35/46 26/45/46
f 28/36/32 37/20/32 38/17/32
f 30/37/32 38/17/32 8/7/32
f 30/37/32 7/9/32 32/40/32
f 32/40/32 39/46/32 34/41/32
f 36/43/32 39/46/32 40/47/32
f 27/35/32 40/47/32 37/20/32
f 42/48/43 44/49/43 41/50/43
f 8/7/47 45/51/48 11/10/49
f 7/9/50 46/52/51 39/46/52
f 40/47/53 48/53/54 37/20/55
f 43/3/56 50/29/57 44/2/57
f 45/10/58 15/17/59 11/14/60
f 46/54/61 17/20/62 52/55/63
f 48/12/64 53/56/65 54/57/64
f 54/57/37 56/37/37 51/7/37
f 51/7/37 57/58/37 15/17/37
f 17/20/37 57/58/37 58/35/37
f 52/55/37 58/35/37 59/43/37
f 52/55/37 60/41/37 53/56/37
f 53/56/37 55/59/37 54/57/37
f 56/37/66 26/60/66 25/38/67
f 57/58/68 25/38/68 29/34/68
f 57/58/69 31/45/69 58/35/70
f 59/43/56 31/45/56 33/61/56
f 60/41/71 33/61/71 35/62/71
f 60/41/72 26/60/72 55/59/73
f 37/20/74 62/63/74 38/17/74
f 48/53/75 61/18/75 37/20/75
f 45/51/76 62/63/76 64/16/76
f 48/12/77 65/64/78 63/65/79
f 54/57/80 66/11/80 65/64/80
f 45/10/81 66/11/82 51/7/81
f 61/18/83 68/25/83 62/63/83
f 63/27/84 67/28/85 61/18/85
f 64/16/86 68/25/87 70/66/86
f 63/65/84 71/67/88 69/24/89
f 65/64/90 72/23/90 71/67/90
f 64/22/86 72/23/91 66/11/92
f 68/25/32 42/48/32 41/50/32
f 69/33/93 42/48/93 67/28/93
f 70/66/94 41/50/94 44/68/95
f 69/24/96 49/69/96 43/31/97
f 72/23/37 49/69/37 71/67/37
f 70/70/98 50/29/98 72/23/98
f 73/71/99 75/72/99 76/73/99
f 76/74/100 77/75/100 78/76/101
f 40/47/102 79/77/102 80/78/102
f 46/52/103 79/77/103 39/46/103
f 47/79/104 80/78/105 82/80/106
f 46/54/107 83/81/108 81/80/108
f 53/56/109 83/81/109 52/55/109
f 47/52/110 84/77/111 53/56/112
f 80/78/113 85/82/113 86/83/113
f 81/84/114 85/82/115 79/77/115
f 82/80/116 86/83/117 88/85/116
f 81/80/114 89/83/118 87/86/114
f 84/77/119 89/83/119 83/81/119
f 82/87/116 90/82/120 84/77/120
f 85/82/32 73/71/32 86/83/32
f 87/88/121 74/89/121 85/82/121
f 88/85/122 73/71/122 76/90/123
f 87/86/124 77/75/124 75/90/124
f 89/83/37 78/76/37 77/75/37
f 88/88/125 78/76/125 90/82/125
f 91/91/126 93/92/126 94/93/126
f 95/94/127 93/92/127 92/95/127
f 97/96/128 99/97/129 100/98/128
f 101/99/130 103/100/130 104/101/130
f 102/102/131 106/103/131 103/100/131
f 107/104/132 109/105/133 110/106/134
f 111/107/135 113/108/135 114/109/135
f 115/110/136 113/108/136 112/111/136
f 118/112/137 120/113/137 117/114/137
f 121/115/138 122/116/138 123/117/138
f 122/116/138 124/118/138 123/117/138
f 124/118/138 125/119/138 123/117/138
f 125/119/138 126/120/138 123/117/138
f 126/120/138 127/121/138 123/117/138
f 127/121/138 128/122/138 123/117/138
f 128/122/138 129/123/138 123/117/138
f 129/123/138 130/124/138 123/117/138
f 130/124/138 121/115/138 123/117/138
f 122/116/139 119/125/139 131/126/139
f 124/118/140 131/126/140 100/98/140
f 125/119/141 100/98/141 99/97/141
f 126/120/142 99/97/142 132/127/142
f 126/120/143 110/106/143 127/121/143
f 127/121/144 109/105/144 128/122/145
f 128/122/146 133/128/146 129/123/147
f 129/123/148 120/113/148 130/124/148
f 121/115/149 120/113/149 119/125/149
f 134/129/150 101/130/151 98/131/152
f 132/127/138 104/101/138 103/100/138
f 99/97/153 101/132/154 104/101/154
f 134/129/150 105/133/151 102/134/151
f 110/106/155 105/135/155 107/104/155
f 132/127/138 106/103/138 110/106/138
f 135/136/156 111/137/151 108/138/157
f 133/128/138 114/109/138 113/108/138
f 109/105/158 111/139/158 114/109/158
f 135/136/156 115/140/151 112/141/151
f 120/113/159 115/142/159 117/114/159
f 133/128/138 116/143/138 120/113/138
f 136/144/160 91/145/151 118/146/161
f 131/126/138 94/93/138 93/92/138
f 118/112/162 94/93/163 119/125/162
f 136/144/160 95/147/151 92/148/151
f 97/96/164 96/149/165 95/150/165
f 131/126/138 96/149/138 100/98/138
f 118/146/161 138/151/166 136/144/160
f 136/144/160 139/152/167 97/153/168
f 97/153/168 140/154/169 98/131/152
f 98/131/152 141/155/170 134/129/150
f 107/156/171 141/155/170 142/157/172
f 108/138/157 142/157/172 143/158/173
f 135/136/156 143/158/173 144/159/174
f 117/160/175 144/159/174 145/161/176
f 118/146/161 145/161/176 137/162/177
f 138/163/178 146/164/178 147/165/178
f 139/166/179 147/165/179 148/167/179
f 140/168/180 148/167/180 149/169/180
f 141/170/181 149/169/181 150/171/181
f 141/172/182 151/173/182 142/174/182
f 142/174/183 152/175/183 143/176/183
f 143/176/184 153/177/184 144/178/184
f 144/178/185 154/179/185 145/180/185
f 137/181/186 154/179/186 146/182/186
f 156/183/187 158/184/187 155/185/187
f 159/186/188 157/187/188 156/188/188
f 161/189/189 160/190/189 159/186/189
f 163/191/190 162/192/190 161/189/190
f 155/185/191 164/193/191 163/191/191
f 156/194/32 155/195/32 165/196/32
f 159/197/32 156/194/32 165/196/32
f 161/198/32 159/197/32 165/196/32
f 163/199/32 161/198/32 165/196/32
f 155/195/32 163/199/32 165/196/32
f 167/183/192 169/184/192 166/185/192
f 170/186/188 168/187/188 167/188/188
f 172/189/189 171/190/189 170/186/189
f 174/191/193 173/192/193 172/189/193
f 166/185/194 175/193/194 174/191/194
f 167/194/32 166/195/32 176/196/32
f 170/197/32 167/194/32 176/196/32
f 172/198/32 170/197/32 176/196/32
f 174/199/32 172/198/32 176/196/32
f 166/195/32 174/199/32 176/196/32
f 178/183/192 180/184/192 177/185/192
f 181/186/188 179/187/188 178/188/188
f 183/189/189 182/190/189 181/186/189
f 185/191/190 184/192/190 183/189/190
f 177/185/191 186/193/191 185/191/191
f 178/194/32 177/195/32 187/196/32
f 181/197/32 178/194/32 187/196/32
f 183/198/32 181/197/32 187/196/32
f 185/199/32 183/198/32 187/196/32
f 177/195/32 185/199/32 187/196/32
f 189/200/195 191/201/195 188/202/195
f 191/203/196 192/204/197 193/205/198
f 194/206/199 196/207/199 197/208/199
f 196/207/200 199/209/201 197/208/200
f 198/204/202 190/210/202 189/200/202
f 197/208/203 193/211/204 194/212/203
f 193/205/198 195/207/205 194/213/205
f 192/214/202 196/207/202 195/215/202
f 198/204/206 188/202/207 199/209/201
f 199/209/204 191/216/208 193/211/204
f 201/200/209 203/201/209 200/202/209
f 203/203/210 204/204/211 205/205/212
f 206/206/213 208/207/213 209/208/213
f 208/207/214 211/209/215 209/208/214
f 210/204/216 202/210/216 201/200/216
f 209/208/217 205/211/218 206/212/217
f 206/213/219 204/204/211 207/207/219
f 204/214/216 208/207/216 207/215/216
f 210/204/220 200/202/221 211/209/215
f 211/209/218 203/216/222 205/211/218
f 213/200/223 215/201/223 212/202/223
f 215/203/224 216/204/225 217/205/226
f 218/206/227 220/207/227 221/208/227
f 220/207/228 223/209/229 221/208/228
f 222/204/230 214/210/230 213/200/230
f 221/208/231 217/211/232 218/212/231
f 217/205/226 219/207/233 218/213/233
f 216/214/230 220/207/230 219/215/230
f 222/204/234 212/202/235 223/209/229
f 223/209/232 215/216/236 217/211/232
f 1/1/1 2/29/1 3/2/1
f 4/4/2 3/217/2 5/5/2
f 8/7/3 9/11/237 10/8/3
f 11/10/5 12/22/238 9/11/6
f 13/12/8 7/9/239 10/8/9
f 11/14/11 15/17/240 16/15/12
f 15/17/14 17/20/241 18/18/15
f 13/19/17 14/27/242 18/18/18
f 9/11/20 19/23/20 20/21/21
f 12/22/22 21/30/28 19/23/23
f 14/13/25 10/8/26 20/21/26
f 12/16/22 16/15/27 23/25/27
f 18/18/29 24/28/29 23/25/30
f 14/27/25 22/33/25 24/28/31
f 20/21/32 19/23/32 2/29/32
f 21/30/33 3/218/243 2/29/33
f 22/24/34 20/21/34 1/1/34
f 21/26/35 23/25/35 5/5/35
f 23/25/37 24/28/37 6/6/37
f 22/33/38 4/219/38 6/6/38
f 25/34/39 26/45/244 27/35/40
f 25/34/41 28/36/41 30/37/41
f 31/39/42 29/38/245 30/37/42
f 31/39/43 32/40/43 34/41/43
f 33/42/44 34/41/44 36/43/44
f 35/44/45 36/43/45 27/35/46
f 28/36/32 27/35/32 37/20/32
f 30/37/32 28/36/32 38/17/32
f 30/37/32 8/7/32 7/9/32
f 32/40/32 7/9/32 39/46/32
f 36/43/32 34/41/32 39/46/32
f 27/35/32 36/43/32 40/47/32
f 42/48/43 43/4/246 44/49/43
f 8/7/47 38/17/247 45/51/48
f 7/9/50 13/12/248 46/52/51
f 40/47/53 47/79/249 48/53/54
f 43/3/56 49/69/250 50/29/57
f 45/10/58 51/7/251 15/17/59
f 46/54/61 13/19/62 17/20/62
f 48/12/64 47/52/65 53/56/65
f 54/57/37 55/59/37 56/37/37
f 51/7/37 56/37/37 57/58/37
f 17/20/37 15/17/37 57/58/37
f 52/55/37 17/20/37 58/35/37
f 52/55/37 59/43/37 60/41/37
f 53/56/37 60/41/37 55/59/37
f 56/37/66 55/59/66 26/60/66
f 57/58/68 56/37/68 25/38/68
f 57/58/69 29/34/69 31/45/69
f 59/43/56 58/35/56 31/45/56
f 60/41/71 59/43/71 33/61/71
f 60/41/72 35/62/72 26/60/72
f 37/20/74 61/18/74 62/63/74
f 48/53/75 63/27/252 61/18/75
f 45/51/76 38/17/76 62/63/76
f 48/12/77 54/57/77 65/64/78
f 54/57/80 51/7/80 66/11/80
f 45/10/81 64/22/82 66/11/82
f 61/18/83 67/28/83 68/25/83
f 63/27/84 69/33/89 67/28/85
f 64/16/86 62/63/253 68/25/87
f 63/65/84 65/64/88 71/67/88
f 65/64/90 66/11/90 72/23/90
f 64/22/86 70/70/86 72/23/91
f 68/25/32 67/28/32 42/48/32
f 69/33/93 43/220/93 42/48/93
f 70/66/94 68/25/94 41/50/94
f 69/24/96 71/67/254 49/69/96
f 72/23/37 50/29/37 49/69/37
f 70/70/98 44/218/98 50/29/98
f 73/71/99 74/89/99 75/72/99
f 76/74/100 75/221/100 77/75/100
f 40/47/102 39/46/255 79/77/102
f 46/52/103 81/84/103 79/77/103
f 47/79/104 40/47/104 80/78/105
f 46/54/107 52/55/107 83/81/108
f 53/56/109 84/77/256 83/81/109
f 47/52/110 82/87/257 84/77/111
f 80/78/113 79/77/113 85/82/113
f 81/84/114 87/88/114 85/82/115
f 82/80/116 80/78/117 86/83/117
f 81/80/114 83/81/118 89/83/118
f 84/77/119 90/82/119 89/83/119
f 82/87/116 88/88/116 90/82/120
f 85/82/32 74/89/32 73/71/32
f 87/88/121 75/222/121 74/89/121
f 88/85/122 86/83/122 73/71/122
f 87/86/124 89/83/124 77/75/124
f 89/83/37 90/82/37 78/76/37
f 88/88/125 76/223/258 78/76/125
f 91/91/126 92/95/126 93/92/126
f 95/94/127 96/149/127 93/92/127
f 97/96/128 98/224/129 99/97/129
f 101/99/130 102/102/130 103/100/130
f 102/102/131 105/225/131 106/103/131
f 107/104/132 108/226/133 109/105/133
f 111/107/135 112/111/135 113/108/135
f 115/110/136 116/143/136 113/108/136
f 118/112/137 119/125/137 120/113/137
f 122/116/139 121/115/259 119/125/139
f 124/118/140 122/116/140 131/126/140
f 125/119/141 124/118/260 100/98/141
f 126/120/142 125/119/261 99/97/142
f 126/120/143 132/127/143 110/106/143
f 127/121/144 110/106/144 109/105/144
f 128/122/146 109/105/146 133/128/146
f 129/123/148 133/128/262 120/113/148
f 121/115/149 130/124/263 120/113/149
f 134/129/150 102/134/151 101/130/151
f 132/127/138 99/97/138 104/101/138
f 99/97/153 98/224/153 101/132/154
f 134/129/150 107/156/171 105/133/151
f 110/106/155 106/103/155 105/135/155
f 132/127/138 103/100/138 106/103/138
f 135/136/156 112/141/151 111/137/151
f 133/128/138 109/105/138 114/109/138
f 109/105/158 108/226/158 111/139/158
f 135/136/156 117/160/175 115/140/151
f 120/113/159 116/143/159 115/142/159
f 133/128/138 113/108/138 116/143/138
f 136/144/160 92/148/151 91/145/151
f 131/126/138 119/125/138 94/93/138
f 118/112/162 91/227/163 94/93/163
f 136/144/160 97/153/168 95/147/151
f 97/96/164 100/98/164 96/149/165
f 131/126/138 93/92/138 96/149/138
f 118/146/161 137/162/177 138/151/166
f 136/144/160 138/151/166 139/152/167
f 97/153/168 139/152/167 140/154/169
f 98/131/152 140/154/169 141/155/170
f 107/156/171 134/129/150 141/155/170
f 108/138/157 107/156/171 142/157/172
f 135/136/156 108/138/157 143/158/173
f 117/160/175 135/136/156 144/159/174
f 118/146/161 117/160/175 145/161/176
f 138/163/178 137/228/178 146/164/178
f 139/166/179 138/163/179 147/165/179
f 140/168/180 139/166/180 148/167/180
f 141/170/181 140/168/181 149/169/181
f 141/172/182 150/229/182 151/173/182
f 142/174/183 151/173/183 152/175/183
f 143/176/184 152/175/184 153/177/184
f 144/178/185 153/177/185 154/179/185
f 137/181/186 145/180/186 154/179/186
f 156/183/187 157/230/187 158/184/187
f 159/186/188 160/190/188 157/187/188
f 161/189/189 162/192/189 160/190/189
f 163/191/190 164/193/190 162/192/190
f 155/185/191 158/184/191 164/193/191
f 167/183/192 168/230/192 169/184/192
f 170/186/188 171/190/188 168/187/188
f 172/189/189 173/192/189 171/190/189
f 174/191/193 175/193/193 173/192/193
f 166/185/194 169/184/194 175/193/194
f 178/183/192 179/230/192 180/184/192
f 181/186/188 182/190/188 179/187/188
f 183/189/189 184/192/189 182/190/189
f 185/191/190 186/193/190 184/192/190
f 177/185/191 180/184/191 186/193/191
f 189/200/195 190/231/195 191/201/195
f 191/203/196 190/232/264 192/204/197
f 194/206/199 195/233/199 196/207/199
f 196/207/200 198/204/206 199/209/201
f 198/204/202 192/214/202 190/210/202
f 197/208/203 199/209/204 193/211/204
f 193/205/198 192/204/197 195/207/205
f 192/214/202 198/204/202 196/207/202
f 198/204/206 189/200/265 188/202/207
f 199/209/204 188/202/208 191/216/208
f 201/200/209 202/231/209 203/201/209
f 203/203/210 202/232/266 204/204/211
f 206/206/213 207/233/213 208/207/213
f 208/207/214 210/204/220 211/209/215
f 210/204/216 204/214/216 202/210/216
f 209/208/217 211/209/218 205/211/218
f 206/213/219 205/205/212 204/204/211
f 204/214/216 210/204/216 208/207/216
f 210/204/220 201/200/267 200/202/221
f 211/209/218 200/202/222 203/216/222
f 213/200/223 214/231/223 215/201/223
f 215/203/224 214/232/268 216/204/225
f 218/206/227 219/233/227 220/207/227
f 220/207/228 222/204/234 223/209/229
f 222/204/230 216/214/230 214/210/230
f 221/208/231 223/209/232 217/211/232
f 217/205/226 216/204/225 219/207/233
f 216/214/230 222/204/230 220/207/230
f 222/204/234 213/200/269 212/202/235
f 223/209/232 212/202/236 215/216/236
