# Blender 4.0.2
# www.blender.org
mtllib ChineseLamp.mtl
o ModernLamp_Single_立方体.003
v -0.070745 0.600000 0.073687
v -0.070745 0.600000 -0.073687
v 0.076630 0.600000 -0.073687
v 0.076630 0.600000 0.073687
v -0.104671 0.090000 -0.107614
v 0.110557 0.090000 -0.107614
v 0.110557 0.090000 0.107614
v -0.104671 0.090000 0.107614
v -0.104327 0.000000 0.118744
v -0.115801 0.000000 0.107270
v -0.112440 0.000000 0.115383
v -0.115801 -0.000000 -0.107270
v -0.104327 -0.000000 -0.118744
v -0.112440 -0.000000 -0.115383
v 0.121686 0.000000 0.107270
v 0.110213 0.000000 0.118744
v 0.118326 0.000000 0.115383
v 0.110213 -0.000000 -0.118744
v 0.121686 -0.000000 -0.107270
v 0.118326 -0.000000 -0.115383
v -0.070401 0.090000 0.084817
v -0.081874 0.090000 0.073343
v -0.089987 0.090000 0.092930
v -0.078514 0.090000 0.081456
v -0.081874 0.090000 -0.073343
v -0.070401 0.090000 -0.084817
v -0.089987 0.090000 -0.092930
v -0.078514 0.090000 -0.081456
v 0.076286 0.090000 -0.084817
v 0.087759 0.090000 -0.073343
v 0.095873 0.090000 -0.092930
v 0.084399 0.090000 -0.081456
v 0.087759 0.090000 0.073343
v 0.076286 0.090000 0.084817
v 0.095873 0.090000 0.092930
v 0.084399 0.090000 0.081456
v -0.081874 0.588870 0.073343
v -0.070401 0.588870 0.084817
v -0.075250 0.595495 0.078193
v -0.078514 0.588870 0.081456
v -0.070401 0.588870 -0.084817
v -0.081874 0.588870 -0.073343
v -0.075250 0.595495 -0.078193
v -0.078514 0.588870 -0.081456
v 0.087759 0.588870 -0.073343
v 0.076286 0.588870 -0.084817
v 0.081135 0.595495 -0.078193
v 0.084399 0.588870 -0.081456
v 0.076286 0.588870 0.084817
v 0.087759 0.588870 0.073343
v 0.081135 0.595495 0.078193
v 0.084399 0.588870 0.081456
v -0.104327 0.078870 -0.118744
v -0.115801 0.078870 -0.107270
v -0.109177 0.085495 -0.112119
v -0.112440 0.078870 -0.115383
v 0.121686 0.078870 -0.107270
v 0.110213 0.078870 -0.118744
v 0.115062 0.085495 -0.112119
v 0.118326 0.078870 -0.115383
v 0.110213 0.078870 0.118744
v 0.121686 0.078870 0.107270
v 0.115062 0.085495 0.112119
v 0.118326 0.078870 0.115383
v -0.115801 0.078870 0.107270
v -0.104327 0.078870 0.118744
v -0.109177 0.085495 0.112119
v -0.112440 0.078870 0.115383
v -0.038405 0.600000 0.050000
v -0.047057 0.600000 0.041348
v -0.053176 0.600000 0.056118
v -0.047057 0.600000 -0.041348
v -0.038405 0.600000 -0.050000
v -0.053176 0.600000 -0.056118
v 0.044290 0.600000 -0.050000
v 0.052943 0.600000 -0.041348
v 0.059061 0.600000 -0.056118
v 0.052943 0.600000 0.041348
v 0.044290 0.600000 0.050000
v 0.059061 0.600000 0.056118
v -0.049542 2.885000 -0.052485
v 0.055428 2.885000 -0.052485
v 0.055428 2.885000 0.052485
v -0.049542 2.885000 0.052485
v -0.040346 2.885000 -0.050731
v -0.038405 2.883434 -0.050000
v -0.047057 2.883434 -0.041348
v -0.047789 2.885000 -0.043289
v 0.053674 2.885000 -0.043289
v 0.052943 2.883434 -0.041348
v 0.044290 2.883434 -0.050000
v 0.046231 2.885000 -0.050731
v 0.046231 2.885000 0.050731
v 0.044290 2.883434 0.050000
v 0.052943 2.883434 0.041348
v 0.053674 2.885000 0.043289
v -0.047789 2.885000 0.043289
v -0.047057 2.883434 0.041348
v -0.038405 2.883434 0.050000
v -0.040346 2.885000 0.050731
v -0.049542 2.897221 0.055264
v -0.049542 2.900000 0.052485
v -0.052322 2.897221 0.052485
v -0.052322 2.897221 -0.052485
v -0.049542 2.900000 -0.052485
v -0.049542 2.897221 -0.055264
v 0.058207 2.897221 0.052485
v 0.055428 2.900000 0.052485
v 0.055428 2.897221 0.055264
v 0.055428 2.897221 -0.055264
v 0.055428 2.900000 -0.052485
v 0.058207 2.897221 -0.052485
v -0.052322 2.887779 0.052485
v -0.049542 2.885000 0.052485
v -0.049542 2.887779 0.055264
v -0.052322 2.887779 -0.052485
v -0.049542 2.887779 -0.055264
v -0.049542 2.885000 -0.052485
v 0.055428 2.887779 -0.055264
v 0.058207 2.887779 -0.052485
v 0.055428 2.885000 -0.052485
v 0.058207 2.887779 0.052485
v 0.055428 2.887779 0.055264
v 0.055428 2.885000 0.052485
v -0.673296 2.690167 0.036238
v -0.673296 2.693928 0.040000
v -0.677057 2.693928 0.036238
v -0.673296 2.766405 0.040000
v -0.673296 2.770167 0.036238
v -0.677057 2.766405 0.036238
v -0.673296 2.690167 -0.036238
v -0.677057 2.693928 -0.036238
v -0.673296 2.693928 -0.040000
v -0.673296 2.770167 -0.036238
v -0.673296 2.766405 -0.040000
v -0.677057 2.766405 -0.036238
v -0.047057 2.693928 0.040000
v -0.047057 2.690167 0.036238
v -0.047057 2.770167 0.036238
v -0.047057 2.766405 0.040000
v -0.047057 2.690167 -0.036238
v -0.047057 2.693928 -0.040000
v -0.047057 2.766405 -0.040000
v -0.047057 2.770167 -0.036238
v -0.749881 2.212221 0.182823
v -0.384234 2.212221 0.182823
v -0.717057 2.240166 0.150000
v -0.417057 2.240166 0.150000
v -0.749881 2.185468 0.182823
v -0.384234 2.185468 0.182823
v -0.646354 2.212221 0.182823
v -0.639708 2.216465 0.177838
v -0.527739 2.225968 0.166677
v -0.494407 2.216465 0.177838
v -0.487760 2.212221 0.182823
v -0.606376 2.225968 0.166677
v -0.567057 2.229305 0.162757
v -0.661980 2.202244 0.182823
v -0.669801 2.185468 0.182823
v -0.464314 2.185468 0.182823
v -0.472135 2.202244 0.182823
v -0.384234 2.212221 0.182823
v -0.384234 2.212221 -0.182824
v -0.417057 2.240166 0.150000
v -0.417057 2.240166 -0.150000
v -0.384234 2.185468 0.182823
v -0.384234 2.185468 -0.182824
v -0.384234 2.212221 0.079297
v -0.389219 2.216465 0.072650
v -0.400380 2.225968 -0.039318
v -0.389219 2.216465 -0.072651
v -0.384234 2.212221 -0.079297
v -0.400380 2.225968 0.039318
v -0.404299 2.229305 -0.000000
v -0.384234 2.202244 0.094922
v -0.384234 2.185468 0.102743
v -0.384234 2.185468 -0.102744
v -0.384234 2.202244 -0.094923
v -0.384234 2.212221 -0.182824
v -0.749881 2.212221 -0.182824
v -0.417057 2.240166 -0.150001
v -0.717057 2.240166 -0.150001
v -0.384234 2.185468 -0.182824
v -0.749881 2.185468 -0.182824
v -0.487760 2.212221 -0.182824
v -0.494407 2.216465 -0.177839
v -0.606375 2.225968 -0.166678
v -0.639708 2.216465 -0.177839
v -0.646354 2.212221 -0.182824
v -0.527739 2.225968 -0.166678
v -0.567057 2.229305 -0.162758
v -0.472135 2.202244 -0.182824
v -0.464314 2.185468 -0.182824
v -0.669801 2.185468 -0.182824
v -0.661980 2.202244 -0.182824
v -0.749881 2.212221 -0.182824
v -0.749881 2.212221 0.182823
v -0.717058 2.240166 -0.150000
v -0.717058 2.240166 0.149999
v -0.749881 2.185468 -0.182824
v -0.749881 2.185468 0.182823
v -0.749881 2.212221 -0.079298
v -0.744896 2.216465 -0.072651
v -0.733734 2.225968 0.039318
v -0.744896 2.216465 0.072650
v -0.749881 2.212221 0.079297
v -0.733734 2.225968 -0.039319
v -0.729815 2.229305 -0.000000
v -0.749881 2.202244 -0.094923
v -0.749881 2.185468 -0.102744
v -0.749881 2.185468 0.102743
v -0.749881 2.202244 0.094922
v -0.749134 2.211736 0.182286
v -0.384981 2.211736 0.182286
v -0.716471 2.239366 0.149286
v -0.417643 2.239366 0.149286
v -0.749131 2.185081 0.182313
v -0.384984 2.185081 0.182313
v -0.646354 2.211305 0.181837
v -0.639708 2.215499 0.176893
v -0.527739 2.225002 0.165732
v -0.494407 2.215499 0.176893
v -0.487760 2.211305 0.181837
v -0.606376 2.225002 0.165732
v -0.567057 2.228339 0.161812
v -0.661980 2.201470 0.181804
v -0.669801 2.184694 0.181804
v -0.464314 2.184694 0.181804
v -0.472135 2.201470 0.181804
v -0.384921 2.212189 -0.182536
v -0.417643 2.239574 -0.150171
v -0.384984 2.185855 -0.182314
v -0.385457 2.211631 0.078849
v -0.390391 2.215830 0.072167
v -0.401552 2.225332 -0.039801
v -0.390391 2.215830 -0.073134
v -0.385530 2.211709 -0.079687
v -0.401552 2.225332 0.038835
v -0.405472 2.228669 -0.000483
v -0.385734 2.202244 0.094922
v -0.385734 2.185468 0.102743
v -0.385734 2.185468 -0.102744
v -0.385734 2.202244 -0.094923
v -0.749194 2.212189 -0.182536
v -0.716471 2.239574 -0.150171
v -0.749131 2.185855 -0.182314
v -0.487760 2.212024 -0.182323
v -0.494407 2.215917 -0.177696
v -0.606375 2.225420 -0.166535
v -0.639708 2.215917 -0.177696
v -0.646354 2.212024 -0.182323
v -0.527739 2.225420 -0.166535
v -0.567057 2.228757 -0.162615
v -0.472135 2.203018 -0.181804
v -0.464314 2.186243 -0.181804
v -0.669801 2.186242 -0.181805
v -0.661980 2.203018 -0.181805
v -0.748584 2.211709 -0.079687
v -0.743723 2.215830 -0.073134
v -0.732562 2.225332 0.038835
v -0.743724 2.215830 0.072167
v -0.748658 2.211631 0.078849
v -0.732562 2.225332 -0.039802
v -0.728643 2.228669 -0.000483
v -0.748381 2.202244 -0.094923
v -0.748381 2.185468 -0.102744
v -0.748381 2.185468 0.102743
v -0.748381 2.202244 0.094922
v -0.711569 2.240166 0.150000
v -0.717057 2.240166 0.144512
v -0.715450 2.240166 0.148393
v -0.717057 2.240166 -0.144512
v -0.711569 2.240166 -0.150000
v -0.715450 2.240166 -0.148393
v -0.417057 2.240166 0.144512
v -0.422546 2.240166 0.150000
v -0.418665 2.240166 0.148393
v -0.422546 2.240166 -0.150000
v -0.417057 2.240166 -0.144512
v -0.418665 2.240166 -0.148393
v -0.711569 2.614678 -0.150000
v -0.717057 2.614678 -0.144512
v -0.722546 2.620167 -0.155488
v -0.715450 2.614678 -0.148393
v -0.717057 2.617847 -0.150000
v -0.718665 2.618559 -0.150000
v -0.717058 2.618559 -0.151607
v -0.417057 2.614678 -0.144512
v -0.422546 2.614678 -0.150000
v -0.411569 2.620167 -0.155488
v -0.418665 2.614678 -0.148393
v -0.417057 2.617847 -0.150000
v -0.417057 2.618559 -0.151607
v -0.415450 2.618559 -0.150000
v -0.422546 2.614678 0.150000
v -0.417057 2.614678 0.144512
v -0.411569 2.620167 0.155488
v -0.418665 2.614678 0.148393
v -0.417057 2.617847 0.150000
v -0.415450 2.618559 0.150000
v -0.417057 2.618559 0.151607
v -0.711569 2.614678 0.150000
v -0.722546 2.620167 0.155488
v -0.717057 2.614678 0.144512
v -0.717058 2.618559 0.151607
v -0.717057 2.617847 0.150000
v -0.718665 2.618559 0.150000
v -0.715450 2.614678 0.148393
v -0.748087 2.638373 0.182823
v -0.748087 2.640167 0.181029
v -0.749880 2.638373 0.181029
v -0.749880 2.638373 -0.181029
v -0.748087 2.640167 -0.181029
v -0.748087 2.638373 -0.182823
v -0.384234 2.638373 0.181029
v -0.386028 2.640167 0.181029
v -0.386028 2.638373 0.182823
v -0.386028 2.638373 -0.182823
v -0.386028 2.640167 -0.181029
v -0.384234 2.638373 -0.181029
v -0.749880 2.621960 0.181029
v -0.748087 2.620167 0.181029
v -0.748087 2.621960 0.182823
v -0.749880 2.621960 -0.181029
v -0.748087 2.621960 -0.182823
v -0.748087 2.620167 -0.181029
v -0.386028 2.621960 -0.182823
v -0.384234 2.621960 -0.181029
v -0.386028 2.620167 -0.181029
v -0.384234 2.621960 0.181029
v -0.386028 2.621960 0.182823
v -0.386028 2.620167 0.181029
v 0.001611 2.897221 -0.046321
v 0.019337 2.897221 -0.042795
v 0.034365 2.897221 -0.032754
v 0.044406 2.897221 -0.017726
v 0.047932 2.897221 -0.000000
v 0.044406 2.897221 0.017726
v 0.034365 2.897221 0.032754
v 0.019337 2.897221 0.042795
v 0.001611 2.897221 0.046321
v -0.016116 2.897221 0.042795
v -0.031143 2.897221 0.032754
v -0.041185 2.897221 0.017726
v -0.044711 2.897221 -0.000000
v -0.041185 2.897221 -0.017726
v -0.031143 2.897221 -0.032754
v -0.016116 2.897221 -0.042795
v 0.001611 2.989864 -0.040729
v 0.001611 2.984378 -0.046321
v 0.001611 2.988257 -0.044683
v 0.017197 2.989864 -0.037628
v 0.019337 2.984378 -0.042795
v 0.018710 2.988257 -0.041282
v 0.030410 2.989864 -0.028799
v 0.034365 2.984378 -0.032754
v 0.033207 2.988257 -0.031596
v 0.039239 2.989864 -0.015586
v 0.044406 2.984378 -0.017726
v 0.042893 2.988257 -0.017100
v 0.042339 2.989864 -0.000000
v 0.047932 2.984378 -0.000000
v 0.046294 2.988257 -0.000000
v 0.039239 2.989864 0.015586
v 0.044406 2.984378 0.017726
v 0.042893 2.988257 0.017100
v 0.030410 2.989864 0.028799
v 0.034365 2.984378 0.032754
v 0.033207 2.988257 0.031596
v 0.017197 2.989864 0.037628
v 0.019337 2.984378 0.042795
v 0.018710 2.988257 0.041282
v 0.001611 2.989864 0.040729
v 0.001611 2.984378 0.046321
v 0.001611 2.988257 0.044683
v -0.013975 2.989864 0.037628
v -0.016116 2.984378 0.042795
v -0.015489 2.988257 0.041282
v -0.027189 2.989864 0.028799
v -0.031143 2.984378 0.032754
v -0.029985 2.988257 0.031596
v -0.036018 2.989864 0.015586
v -0.041185 2.984378 0.017726
v -0.039671 2.988257 0.017100
v -0.039118 2.989864 -0.000000
v -0.044711 2.984378 -0.000000
v -0.043072 2.988257 -0.000000
v -0.036018 2.989864 -0.015586
v -0.041185 2.984378 -0.017726
v -0.039671 2.988257 -0.017100
v -0.027189 2.989864 -0.028799
v -0.031143 2.984378 -0.032754
v -0.029985 2.988257 -0.031596
v -0.013975 2.989864 -0.037628
v -0.016116 2.984378 -0.042795
v -0.015489 2.988257 -0.041282
v -0.567057 2.640167 -0.010000
v -0.567057 2.690167 -0.010000
v -0.557057 2.640167 -0.000000
v -0.557057 2.690167 -0.000000
v -0.567057 2.640167 0.010000
v -0.567057 2.690167 0.010000
v -0.577057 2.640167 -0.000000
v -0.577057 2.690167 -0.000000
vn 0.3416 0.8756 -0.3416
vn -0.3415 0.8756 -0.3416
vn -0.3415 0.8756 0.3416
vn 0.3416 0.8756 0.3416
vn 0.8756 -0.3416 -0.3416
vn 0.8756 0.3416 -0.3416
vn 0.8756 0.3416 0.3416
vn 0.8756 -0.3416 0.3416
vn -0.0000 -1.0000 -0.0000
vn -0.0001 -1.0000 -0.0000
vn 0.2662 -0.9264 0.2663
vn -0.2662 -0.9264 0.2663
vn 0.0001 -1.0000 -0.0000
vn -0.8755 -0.3417 0.3417
vn -0.8755 0.3416 0.3417
vn -0.8755 0.3416 -0.3417
vn -0.8755 -0.3416 -0.3416
vn 0.1951 -0.0000 0.9808
vn 0.1576 0.3440 0.9256
vn -0.1576 0.3440 0.9256
vn -0.1951 -0.0000 0.9808
vn -0.3415 -0.3416 -0.8756
vn -0.3415 0.3416 -0.8756
vn 0.3416 0.3416 -0.8756
vn 0.3416 -0.3416 -0.8756
vn 0.2663 -0.9264 -0.2663
vn 0.9808 -0.0000 -0.1951
vn 0.9257 0.3440 -0.1575
vn 0.9257 0.3440 0.1575
vn 0.9808 -0.0000 0.1951
vn -0.9239 -0.0000 0.3827
vn -0.9239 -0.0000 -0.3827
vn -0.5527 0.8334 -0.0000
vn -0.4723 0.7442 -0.4723
vn -0.9257 0.3440 -0.1575
vn -0.9257 0.3440 0.1575
vn -0.4723 0.7442 0.4723
vn 0.3002 0.9054 -0.3002
vn -0.0000 1.0000 -0.0000
vn 0.3002 0.9054 0.3002
vn -0.3002 0.9054 -0.3002
vn -0.1951 -0.0000 -0.9808
vn -0.1576 0.3440 -0.9257
vn 0.1576 0.3440 -0.9257
vn 0.1951 -0.0000 -0.9808
vn -0.3002 0.9054 0.3002
vn -0.9808 -0.0000 0.1951
vn -0.9808 -0.0000 -0.1951
vn 0.1576 0.3440 0.9257
vn -0.1576 0.3440 0.9257
vn -0.1576 0.3440 -0.9256
vn 0.1576 0.3440 -0.9256
vn -0.2662 -0.9264 -0.2663
vn -0.0000 0.8334 0.5526
vn -0.0000 0.8334 -0.5526
vn 0.5527 0.8334 -0.0000
vn 0.4723 0.7442 -0.4723
vn -0.4724 0.7442 -0.4723
vn 0.4723 0.7442 0.4723
vn -0.9257 0.3440 -0.1576
vn -0.9257 0.3440 0.1576
vn -0.4724 0.7442 0.4723
vn -0.6787 0.2805 0.6787
vn -0.6787 0.2805 -0.6787
vn 0.6787 0.2805 -0.6787
vn 0.6787 0.2805 0.6787
vn 0.6787 0.2806 -0.6787
vn 0.6787 0.2806 0.6787
vn -0.7071 -0.0000 0.7071
vn -0.7071 -0.0000 -0.7071
vn 0.7071 -0.0000 0.7071
vn 0.7071 -0.0000 -0.7071
vn -0.3827 -0.0000 -0.9239
vn 0.9239 -0.0000 -0.3827
vn 0.3827 -0.0000 -0.9239
vn 0.3827 -0.0000 0.9239
vn 0.9239 -0.0000 0.3827
vn -0.3827 -0.0000 0.9239
vn -0.4512 -0.7700 -0.4512
vn 0.4512 -0.7699 -0.4512
vn 0.4512 -0.7699 0.4512
vn -0.4514 -0.7698 0.4513
vn -0.0000 -0.4230 0.9061
vn -0.9059 -0.4234 -0.0000
vn -0.0000 -0.4230 -0.9061
vn 0.9061 -0.4230 -0.0000
vn -0.3415 0.3416 0.8756
vn 0.3416 0.3416 0.8756
vn -0.3415 -0.3416 0.8756
vn 0.3416 -0.3416 0.8756
vn -0.0000 -0.3827 0.9239
vn -0.0000 0.3827 0.9239
vn -0.3417 0.3416 0.8756
vn -0.3416 -0.3416 0.8755
vn -0.0000 0.9239 -0.3827
vn -0.3417 0.8756 -0.3416
vn -0.3417 0.8756 0.3416
vn -0.0000 0.9239 0.3827
vn -0.8756 -0.3416 0.3415
vn -0.8756 0.3415 0.3415
vn -0.8756 0.3415 -0.3415
vn -0.8756 -0.3416 -0.3415
vn -0.3416 -0.3416 -0.8755
vn -0.3417 0.3416 -0.8756
vn -0.0000 0.3827 -0.9239
vn -0.0000 -0.3827 -0.9239
vn -0.3416 -0.8756 0.3415
vn -0.3416 -0.8756 -0.3415
vn -0.0000 -0.9239 -0.3826
vn -0.0000 -0.9239 0.3826
vn -0.0000 0.7614 0.6483
vn -0.0000 0.6506 0.7594
vn -0.0000 0.3076 0.9515
vn -0.0000 -0.0000 1.0000
vn 0.6483 0.7614 -0.0000
vn 0.7594 0.6506 -0.0000
vn 0.9515 0.3076 -0.0000
vn 1.0000 -0.0000 -0.0000
vn -0.0000 0.7614 -0.6483
vn -0.0000 0.6506 -0.7594
vn -0.0000 0.3076 -0.9515
vn -0.0000 -0.0000 -1.0000
vn -0.6483 0.7614 -0.0000
vn -0.7594 0.6506 -0.0000
vn -0.9515 0.3076 -0.0000
vn -1.0000 -0.0000 -0.0000
vn -0.0000 -0.7588 -0.6513
vn -0.0011 -0.6484 -0.7613
vn -0.0038 -0.3054 -0.9522
vn 0.0038 -0.3054 -0.9522
vn 0.0011 -0.6484 -0.7613
vn 0.0056 0.0026 -1.0000
vn -0.0056 0.0026 -1.0000
vn -0.6529 -0.7574 -0.0010
vn -0.7573 -0.6530 0.0007
vn -0.9546 -0.2978 0.0051
vn -0.9534 -0.3017 -0.0062
vn -0.7622 -0.6473 -0.0026
vn -0.9999 0.0090 -0.0084
vn -0.9999 0.0092 0.0080
vn -0.0000 -0.7596 0.6504
vn -0.0061 0.0175 0.9998
vn 0.0061 0.0176 0.9998
vn 0.6529 -0.7575 -0.0010
vn 0.7622 -0.6474 -0.0026
vn 0.9534 -0.3018 -0.0062
vn 0.9546 -0.2978 0.0051
vn 0.7573 -0.6530 0.0007
vn 0.9999 0.0092 0.0080
vn 0.9999 0.0089 -0.0084
vn -0.0000 0.6659 -0.7460
vn 0.5628 -0.5844 0.5846
vn 0.5892 -0.5987 0.5426
vn 0.5640 -0.6156 0.5504
vn 0.5554 -0.5875 0.5885
vn -0.5628 -0.5844 0.5846
vn -0.2699 -0.6734 0.6883
vn -0.2667 -0.6740 0.6889
vn -0.5554 -0.5875 0.5885
vn -0.5894 -0.5988 0.5423
vn -0.5640 -0.6156 0.5504
vn 0.2699 -0.6734 0.6883
vn 0.2667 -0.6740 0.6889
vn -0.0000 -0.6993 0.7148
vn 0.6056 -0.6143 0.5059
vn 0.7362 -0.5282 0.4231
vn -0.0000 -0.7965 0.6047
vn -0.6056 -0.6143 0.5059
vn -0.7363 -0.5282 0.4231
vn 0.8630 -0.4023 0.3056
vn -0.8630 -0.4023 0.3056
vn -0.7650 0.6440 0.0002
vn 0.5440 -0.5832 -0.6033
vn 0.3743 -0.7110 -0.5953
vn 0.4234 -0.6485 -0.6326
vn 0.5553 -0.6583 -0.5082
vn 0.2461 -0.8411 0.4817
vn 0.3918 -0.8925 0.2234
vn 0.3757 -0.8895 0.2599
vn 0.2351 -0.8357 0.4963
vn 0.1194 -0.8101 0.5740
vn 0.1124 -0.8164 0.5664
vn 0.5470 -0.7821 -0.2984
vn 0.5342 -0.8153 -0.2235
vn 0.4854 -0.8738 -0.0281
vn 0.4683 -0.8832 0.0256
vn 0.1375 -0.6568 -0.7414
vn 0.1369 -0.6558 -0.7424
vn 0.1704 -0.9854 -0.0032
vn -0.1704 -0.9854 -0.0032
vn 0.0420 -0.6604 0.7497
vn 0.0418 -0.6596 0.7504
vn -0.0000 -0.4225 -0.9063
vn -0.0000 -0.4225 0.9063
vn -0.0000 -0.2760 0.9612
vn -0.5202 -0.3473 -0.7802
vn -0.6876 -0.4746 -0.5495
vn -0.6876 -0.4745 -0.5496
vn -0.5710 -0.3854 -0.7248
vn 0.5201 -0.3472 -0.7803
vn 0.2348 -0.2450 -0.9407
vn 0.2536 -0.2438 -0.9361
vn 0.5709 -0.3853 -0.7250
vn 0.6877 -0.4748 -0.5492
vn -0.2348 -0.2450 -0.9407
vn -0.2536 -0.2442 -0.9360
vn -0.0000 -0.2525 -0.9676
vn -0.4977 -0.8109 0.3076
vn -0.7563 -0.5720 0.3175
vn -0.6475 -0.6926 0.3179
vn -0.0000 -0.7965 0.6046
vn -0.0000 -0.7964 0.6048
vn 0.7563 -0.5720 0.3176
vn 0.4977 -0.8109 0.3078
vn 0.6474 -0.6926 0.3180
vn -0.8631 -0.4023 0.3052
vn 0.7651 0.6439 0.0002
vn 0.7651 0.6440 0.0002
vn -0.2456 -0.8412 0.4817
vn -0.1193 -0.8101 0.5740
vn -0.1121 -0.8165 0.5663
vn -0.2352 -0.8357 0.4962
vn -0.5440 -0.5832 -0.6033
vn -0.5471 -0.7821 -0.2984
vn -0.5343 -0.8152 -0.2235
vn -0.5553 -0.6583 -0.5082
vn -0.3743 -0.7110 -0.5953
vn -0.4235 -0.6485 -0.6326
vn -0.3919 -0.8925 0.2234
vn -0.3753 -0.8897 0.2599
vn -0.4856 -0.8737 -0.0281
vn -0.4685 -0.8831 0.0256
vn -0.0420 -0.6604 0.7497
vn -0.0419 -0.6596 0.7504
vn 0.1701 -0.9854 -0.0032
vn -0.1701 -0.9854 -0.0032
vn -0.1375 -0.6568 -0.7414
vn -0.1369 -0.6558 -0.7424
vn -0.3414 0.8757 -0.3416
vn -0.3414 0.8757 0.3416
vn 0.8757 -0.3413 -0.3416
vn 0.8757 -0.3413 0.3416
vn 0.0507 -0.9974 0.0507
vn 0.3415 -0.8757 0.3415
vn -0.3416 -0.8755 0.3418
vn -0.0507 -0.9974 0.0507
vn -0.8755 -0.3415 0.3419
vn -0.8757 0.3415 0.3415
vn -0.8757 0.3415 -0.3415
vn -0.8755 -0.3415 -0.3419
vn 0.1535 -0.2513 0.9557
vn -0.1535 -0.2513 0.9557
vn -0.3415 -0.3415 -0.8757
vn -0.3413 0.3417 -0.8757
vn 0.3416 -0.3417 -0.8755
vn -0.0507 -0.9974 -0.0507
vn 0.0507 -0.9974 -0.0507
vn 0.3417 -0.8755 -0.3417
vn 0.9557 -0.2513 -0.1535
vn 0.9557 -0.2513 0.1535
vn -0.1535 -0.2513 -0.9557
vn 0.1535 -0.2513 -0.9557
vn -0.6462 -0.4061 -0.6462
vn -0.4524 -0.7685 -0.4525
vn -0.1446 -0.8862 -0.4403
vn -0.9556 -0.2514 -0.1535
vn -0.4403 -0.8861 -0.1446
vn 0.6461 -0.4061 -0.6462
vn 0.4524 -0.7685 -0.4525
vn 0.4403 -0.8861 -0.1446
vn 0.1446 -0.8861 -0.4403
vn 0.6461 -0.4061 0.6462
vn 0.4524 -0.7685 0.4525
vn 0.1446 -0.8861 0.4403
vn 0.4403 -0.8861 0.1446
vn -0.1446 -0.8862 0.4403
vn -0.4524 -0.7685 0.4525
vn -0.6462 -0.4061 0.6462
vn -0.4403 -0.8861 0.1446
vn -0.9556 -0.2514 0.1535
vn -0.3826 -0.0000 -0.9239
vn -0.9238 -0.0000 -0.3829
vn 0.9238 -0.0000 -0.3828
vn 0.3829 -0.0000 -0.9238
vn 0.3829 -0.0000 0.9238
vn 0.9238 -0.0000 0.3828
vn -0.3826 -0.0000 0.9239
vn -0.9238 -0.0000 0.3829
vn -0.3414 0.3417 0.8756
vn -0.3414 -0.3414 0.8757
vn 0.3416 -0.3417 0.8755
vn 0.1802 0.3826 -0.9062
vn 0.0747 0.9238 -0.3755
vn 0.5133 0.3826 -0.7682
vn 0.2127 0.9238 -0.3183
vn 0.7682 0.3825 -0.5133
vn 0.3183 0.9238 -0.2126
vn 0.9062 0.3826 -0.1802
vn 0.3754 0.9239 -0.0747
vn 0.9062 0.3826 0.1802
vn 0.3754 0.9239 0.0747
vn 0.7682 0.3825 0.5133
vn 0.3183 0.9238 0.2126
vn 0.5133 0.3826 0.7682
vn 0.2126 0.9239 0.3183
vn 0.1802 0.3826 0.9062
vn 0.0747 0.9238 0.3755
vn -0.1802 0.3826 0.9062
vn -0.0747 0.9238 0.3755
vn -0.5133 0.3826 0.7682
vn -0.2127 0.9238 0.3183
vn -0.7682 0.3826 0.5133
vn -0.3182 0.9238 0.2127
vn -0.9061 0.3828 0.1802
vn -0.3755 0.9238 0.0747
vn -0.9061 0.3828 -0.1802
vn -0.3755 0.9238 -0.0747
vn -0.7682 0.3826 -0.5133
vn -0.3183 0.9238 -0.2127
vn -0.5133 0.3826 -0.7682
vn -0.2126 0.9239 -0.3183
vn -0.1802 0.3826 -0.9062
vn -0.0747 0.9238 -0.3755
vt 0.771157 0.991489
vt 0.771157 0.840254
vt 0.922392 0.840254
vt 0.922392 0.991489
vt 0.922392 0.991490
vt 0.908790 0.991490
vt 0.908790 0.840254
vt 0.898254 0.853504
vt 0.904735 0.836301
vt 0.900781 0.840253
vt 0.900781 0.991489
vt 0.904735 0.995443
vt 0.898254 0.978240
vt 0.911225 0.424903
vt 0.911225 0.489695
vt 0.734978 0.489695
vt 0.734978 0.424903
vt 0.900782 0.840254
vt 0.900782 0.991489
vt 0.911225 0.424902
vt 0.734978 0.424902
vt 0.050098 0.008771
vt 0.050098 0.995975
vt 0.014347 0.995975
vt 0.014346 0.008771
vt 0.010606 0.996653
vt 0.013823 0.996653
vt 0.222208 0.014223
vt 0.222208 0.047275
vt 0.221197 0.048285
vt 0.219711 0.047198
vt 0.219712 0.014300
vt 0.221197 0.013213
vt 0.911507 0.507982
vt 0.899444 0.520045
vt 0.883353 0.526710
vt 0.762849 0.526710
vt 0.746758 0.520045
vt 0.734695 0.507982
vt 0.746759 0.520045
vt 0.107830 0.014300
vt 0.107830 0.047198
vt 0.219712 0.047198
vt 0.734978 0.620000
vt 0.728313 0.617239
vt 0.725552 0.610575
vt 0.725552 0.434328
vt 0.728313 0.427663
vt 0.917890 0.427663
vt 0.920650 0.434328
vt 0.920650 0.610575
vt 0.917890 0.617239
vt 0.911225 0.620000
vt 0.887531 0.988963
vt 0.010604 0.996653
vt 0.013822 0.996653
vt 0.900781 0.840255
vt 0.900781 0.991491
vt 0.898255 0.978240
vt 0.870496 0.031847
vt 0.829194 0.073150
vt 0.794469 0.087533
vt 0.600062 0.087533
vt 0.565337 0.073150
vt 0.524034 0.031847
vt 0.524034 0.378309
vt 0.565337 0.337006
vt 0.600062 0.322623
vt 0.794469 0.322623
vt 0.829194 0.337006
vt 0.870496 0.378309
vt 0.814810 0.302282
vt 0.814810 0.107874
vt 0.579720 0.107874
vt 0.579721 0.302282
vt 0.730994 0.500579
vt 0.915208 0.500579
vt 0.107830 0.011727
vt 0.107830 0.012481
vt 0.892779 0.536135
vt 0.890018 0.526710
vt 0.219711 0.012481
vt 0.219712 0.013213
vt 0.219712 0.011727
vt 0.219711 0.049771
vt 0.219711 0.049017
vt 0.219711 0.048285
vt 0.725552 0.489695
vt 0.728313 0.489695
vt 0.730994 0.489695
vt 0.917890 0.489696
vt 0.915209 0.489695
vt 0.920650 0.489695
vt 0.107830 0.049771
vt 0.219712 0.049771
vt 0.725552 0.424903
vt 0.920650 0.424902
vt 0.725552 0.424902
vt 0.920650 0.424903
vt 0.010605 0.008771
vt 0.010606 0.995975
vt 0.010604 0.995975
vt 0.010604 0.008771
vt 0.014345 0.008771
vt 0.014345 0.995975
vt 0.053839 0.008771
vt 0.053839 0.995975
vt 0.050097 0.008772
vt 0.050097 0.995975
vt 0.898255 0.853504
vt 0.900781 0.840254
vt 0.053578 0.996652
vt 0.050360 0.996652
vt 0.897201 0.975443
vt 0.897201 0.856301
vt 0.050098 0.996652
vt 0.014347 0.996653
vt 0.050097 0.996653
vt 0.014345 0.996653
vt 0.904786 0.840254
vt 0.908790 0.836250
vt 0.904785 0.840254
vt 0.926397 0.991490
vt 0.922392 0.995494
vt 0.922392 0.836250
vt 0.926397 0.840254
vt 0.926397 0.840253
vt 0.908790 0.995494
vt 0.904786 0.991490
vt 0.926397 0.840255
vt 0.926397 0.991491
vt 0.926397 0.991489
vt 0.987780 0.484666
vt 0.933522 0.484666
vt 0.933522 0.015849
vt 0.987780 0.015849
vt 0.087152 0.485692
vt 0.504510 0.485692
vt 0.504510 0.533994
vt 0.087152 0.533994
vt 0.987764 0.427625
vt 0.933538 0.427625
vt 0.933538 0.481851
vt 0.987764 0.481851
vt 0.930706 0.015849
vt 0.933522 0.013033
vt 0.990596 0.015849
vt 0.987780 0.013033
vt 0.990579 0.481851
vt 0.987764 0.484666
vt 0.990579 0.427625
vt 0.987764 0.424811
vt 0.933538 0.424811
vt 0.930724 0.427625
vt 0.930724 0.481851
vt 0.933538 0.484666
vt 0.990596 0.484666
vt 0.930706 0.484666
vt 0.493595 0.122587
vt 0.493595 0.417793
vt 0.459430 0.417793
vt 0.459430 0.122587
vt 0.652761 0.835118
vt 0.661350 0.843837
vt 0.661350 0.979651
vt 0.604798 0.936591
vt 0.604798 0.543028
vt 0.661350 0.499968
vt 0.661350 0.635781
vt 0.652761 0.644501
vt 0.633531 0.688228
vt 0.626778 0.739809
vt 0.633531 0.791390
vt 0.696447 0.874596
vt 0.696447 0.979651
vt 0.674439 0.864336
vt 0.696446 0.499968
vt 0.696446 0.605023
vt 0.674439 0.615283
vt 0.652762 0.835118
vt 0.661349 0.499968
vt 0.661349 0.635781
vt 0.652761 0.644500
vt 0.674439 0.615282
vt 0.661350 0.843838
vt 0.661349 0.979651
vt 0.661350 0.635782
vt 0.652761 0.644502
vt 0.633531 0.688230
vt 0.626778 0.739810
vt 0.696446 0.979651
vt 0.696446 0.605024
vt 0.674439 0.615284
vt 0.652646 0.834798
vt 0.661231 0.843514
vt 0.661231 0.979265
vt 0.604705 0.936225
vt 0.604706 0.542843
vt 0.661232 0.499803
vt 0.661232 0.635553
vt 0.652647 0.644269
vt 0.633425 0.687976
vt 0.626675 0.739533
vt 0.633425 0.791090
vt 0.696312 0.874258
vt 0.696311 0.979266
vt 0.674314 0.864003
vt 0.696311 0.499803
vt 0.696311 0.604809
vt 0.674314 0.615064
vt 0.652499 0.644807
vt 0.633386 0.688268
vt 0.633386 0.790798
vt 0.652499 0.834259
vt 0.660952 0.842926
vt 0.661031 0.976938
vt 0.604916 0.934348
vt 0.604916 0.544718
vt 0.661031 0.502128
vt 0.660952 0.636141
vt 0.695795 0.605736
vt 0.673874 0.615829
vt 0.695785 0.502298
vt 0.673874 0.863237
vt 0.695795 0.873329
vt 0.695785 0.976768
vt 0.652599 0.645020
vt 0.633454 0.688372
vt 0.633293 0.790715
vt 0.652302 0.834126
vt 0.660720 0.842835
vt 0.660890 0.977456
vt 0.605280 0.934419
vt 0.605713 0.544685
vt 0.661310 0.502645
vt 0.660906 0.636504
vt 0.695292 0.606761
vt 0.673382 0.616772
vt 0.695580 0.503197
vt 0.672994 0.863724
vt 0.694849 0.873855
vt 0.695580 0.977416
vt 0.652491 0.644836
vt 0.633385 0.688283
vt 0.633385 0.790782
vt 0.652491 0.834228
vt 0.660372 0.842892
vt 0.660443 0.976937
vt 0.605183 0.934284
vt 0.605182 0.544779
vt 0.660443 0.502126
vt 0.660372 0.636172
vt 0.694063 0.605681
vt 0.672177 0.615832
vt 0.694769 0.502278
vt 0.672177 0.863232
vt 0.694062 0.873382
vt 0.694769 0.976785
vt 0.652303 0.644940
vt 0.633294 0.688352
vt 0.633454 0.790694
vt 0.652599 0.834045
vt 0.660906 0.842561
vt 0.661310 0.976419
vt 0.605714 0.934380
vt 0.605280 0.544646
vt 0.660889 0.501609
vt 0.660720 0.636231
vt 0.694849 0.605211
vt 0.672994 0.615342
vt 0.695579 0.501649
vt 0.673382 0.862293
vt 0.695292 0.872304
vt 0.695579 0.975868
vt 0.667452 0.827473
vt 0.996687 0.827473
vt 0.063236 0.587063
vt 0.063236 0.505710
vt 0.074935 0.506671
vt 0.075005 0.587635
vt 0.064145 0.750339
vt 0.064145 0.432817
vt 0.075927 0.432489
vt 0.075926 0.750011
vt 0.063237 0.505710
vt 0.063237 0.424358
vt 0.075005 0.423786
vt 0.074937 0.504751
vt 0.064146 0.750012
vt 0.064146 0.432490
vt 0.075927 0.432817
vt 0.075928 0.750339
vt 0.075762 0.404559
vt 0.075761 0.750339
vt 0.063975 0.750233
vt 0.063975 0.404454
vt 0.062929 0.588941
vt 0.062929 0.427280
vt 0.073469 0.423646
vt 0.073843 0.584642
vt 0.067567 0.052041
vt 0.067567 0.750339
vt 0.073149 0.743799
vt 0.078728 0.052041
vt 0.067569 0.750339
vt 0.067569 0.052042
vt 0.078729 0.052042
vt 0.062694 0.746704
vt 0.062695 0.585042
vt 0.073608 0.589341
vt 0.073235 0.750339
vt 0.067021 0.750339
vt 0.067021 0.588943
vt 0.076355 0.582826
vt 0.076356 0.744223
vt 0.073607 0.423643
vt 0.073607 0.585042
vt 0.064273 0.578924
vt 0.064273 0.417527
vt 0.063975 0.750339
vt 0.063974 0.404560
vt 0.075762 0.404454
vt 0.075760 0.750233
vt 0.073649 0.668987
vt 0.073655 0.750339
vt 0.062806 0.744199
vt 0.062806 0.663046
vt 0.064082 0.748170
vt 0.064082 0.430649
vt 0.076259 0.432817
vt 0.076259 0.750339
vt 0.062486 0.750339
vt 0.062485 0.668987
vt 0.074851 0.669046
vt 0.075005 0.748754
vt 0.063506 0.744798
vt 0.063507 0.427276
vt 0.074565 0.432817
vt 0.074565 0.750339
vt 0.075814 0.404560
vt 0.075814 0.750339
vt 0.064380 0.745620
vt 0.064380 0.399841
vt 0.075963 0.427193
vt 0.076606 0.588819
vt 0.063981 0.588942
vt 0.063981 0.426647
vt 0.066130 0.052045
vt 0.066130 0.750339
vt 0.073150 0.745901
vt 0.079019 0.052038
vt 0.066131 0.750339
vt 0.073149 0.745902
vt 0.061579 0.750332
vt 0.061579 0.588674
vt 0.073002 0.593936
vt 0.074616 0.750339
vt 0.076678 0.588942
vt 0.076678 0.750339
vt 0.063598 0.750339
vt 0.063598 0.588942
vt 0.063597 0.588941
vt 0.076677 0.588941
vt 0.076677 0.750339
vt 0.075558 0.746707
vt 0.075558 0.400928
vt 0.063734 0.404560
vt 0.063735 0.750339
vt 0.069966 0.587048
vt 0.069966 0.505710
vt 0.074113 0.507234
vt 0.074406 0.585568
vt 0.070323 0.749473
vt 0.070325 0.431951
vt 0.075188 0.432817
vt 0.075188 0.750339
vt 0.065527 0.587048
vt 0.065526 0.505710
vt 0.069966 0.507191
vt 0.069676 0.585524
vt 0.069891 0.750339
vt 0.069893 0.432817
vt 0.074754 0.431951
vt 0.074756 0.749473
vt 0.070172 0.750339
vt 0.070172 0.404560
vt 0.075105 0.404281
vt 0.075103 0.750060
vt 0.063179 0.588940
vt 0.063179 0.427302
vt 0.073387 0.430889
vt 0.066893 0.588063
vt 0.067569 0.052041
vt 0.073149 0.743798
vt 0.078730 0.052041
vt 0.067860 0.750339
vt 0.067860 0.052042
vt 0.079019 0.052042
vt 0.073440 0.743799
vt 0.062158 0.588676
vt 0.062158 0.427037
vt 0.065871 0.427916
vt 0.072365 0.585091
vt 0.076356 0.421429
vt 0.076356 0.582826
vt 0.067021 0.576710
vt 0.067021 0.415315
vt 0.061579 0.427275
vt 0.070914 0.421157
vt 0.070914 0.582555
vt 0.069536 0.750060
vt 0.069536 0.404280
vt 0.074468 0.404560
vt 0.074468 0.750339
vt 0.062487 0.668987
vt 0.062487 0.587635
vt 0.075005 0.589220
vt 0.074852 0.668928
vt 0.074564 0.432817
vt 0.063505 0.427277
vt 0.063555 0.505710
vt 0.063555 0.424359
vt 0.074398 0.418417
vt 0.074405 0.499570
vt 0.064081 0.430649
vt 0.064082 0.748171
vt 0.076259 0.432818
vt 0.063735 0.404561
vt 0.075558 0.400929
vt 0.075557 0.746708
vt 0.062541 0.750339
vt 0.062541 0.588682
vt 0.075578 0.588676
vt 0.073964 0.745078
vt 0.073149 0.745901
vt 0.079018 0.052038
vt 0.073149 0.745903
vt 0.075363 0.426771
vt 0.074719 0.588395
vt 0.062737 0.588943
vt 0.062737 0.426648
vt 0.076676 0.588943
vt 0.076676 0.750339
vt 0.063597 0.750339
vt 0.063597 0.588943
vt 0.063598 0.588940
vt 0.076678 0.588940
vt 0.064378 0.399841
vt 0.064379 0.745620
vt 0.075812 0.750339
vt 0.075811 0.404560
vt 0.523108 0.379665
vt 0.523108 0.031936
vt 0.870838 0.031936
vt 0.870838 0.379665
vt 0.519206 0.413967
vt 0.519206 0.404760
vt 0.722333 0.404760
vt 0.722333 0.413968
vt 0.708195 0.430301
vt 0.722524 0.415971
vt 0.519398 0.415971
vt 0.533727 0.430301
vt 0.106285 0.550228
vt 0.597598 0.550228
vt 0.597598 0.929391
vt 0.106285 0.929391
vt 0.519206 0.404751
vt 0.519206 0.413958
vt 0.722333 0.413958
vt 0.722333 0.404751
vt 0.088955 0.069364
vt 0.091169 0.064018
vt 0.096514 0.061804
vt 0.494620 0.061804
vt 0.499965 0.064018
vt 0.502180 0.069364
vt 0.502180 0.467469
vt 0.499965 0.472815
vt 0.494620 0.475029
vt 0.096514 0.475029
vt 0.091169 0.472815
vt 0.088955 0.467470
vt 0.106286 0.550228
vt 0.106286 0.929391
vt 0.597598 0.543028
vt 0.601755 0.543028
vt 0.597508 0.929028
vt 0.597508 0.936225
vt 0.531170 0.427743
vt 0.536806 0.433380
vt 0.597598 0.936591
vt 0.531169 0.427743
vt 0.597508 0.550039
vt 0.597508 0.542843
vt 0.601663 0.542843
vt 0.604705 0.542843
vt 0.106285 0.543028
vt 0.106421 0.936224
vt 0.106421 0.929028
vt 0.106286 0.543028
vt 0.106285 0.936591
vt 0.106286 0.936591
vt 0.106421 0.542843
vt 0.106421 0.550039
vt 0.705116 0.433380
vt 0.887240 0.018308
vt 0.889082 0.020151
vt 0.532275 0.020151
vt 0.534117 0.020151
vt 0.532275 0.018309
vt 0.515420 0.020151
vt 0.513578 0.020151
vt 0.515420 0.018308
vt 0.532258 0.020151
vt 0.534101 0.020151
vt 0.532258 0.018308
vt 0.515419 0.391988
vt 0.513577 0.391988
vt 0.515419 0.393831
vt 0.515420 0.018309
vt 0.515403 0.020151
vt 0.515403 0.018308
vt 0.513560 0.020151
vt 0.532275 0.393831
vt 0.532275 0.391988
vt 0.523064 0.025867
vt 0.870793 0.025867
vt 0.517039 0.379710
vt 0.517039 0.031980
vt 0.870882 0.385734
vt 0.523153 0.385734
vt 0.876907 0.031892
vt 0.876907 0.379621
vt 0.722333 0.414965
vt 0.519206 0.414965
vt 0.722333 0.414974
vt 0.519206 0.414974
vt 0.722333 0.403744
vt 0.519206 0.403744
vt 0.722333 0.403754
vt 0.519206 0.403753
vt 0.690735 0.661205
vt 0.690735 0.811819
vt 0.670723 0.811819
vt 0.670723 0.661205
vt 0.950886 0.661205
vt 0.950886 0.811819
vt 0.930874 0.811819
vt 0.930874 0.661205
vt 0.910863 0.811819
vt 0.910863 0.661205
vt 0.890851 0.811819
vt 0.890851 0.661205
vt 0.870840 0.811819
vt 0.870840 0.661205
vt 0.850828 0.811819
vt 0.850828 0.661205
vt 0.830816 0.811819
vt 0.830816 0.661205
vt 0.810805 0.811819
vt 0.810805 0.661205
vt 0.790793 0.811819
vt 0.790793 0.661205
vt 0.770782 0.811819
vt 0.770782 0.661205
vt 0.750770 0.811819
vt 0.750770 0.661205
vt 0.730758 0.811819
vt 0.730758 0.661205
vt 0.710747 0.811819
vt 0.710747 0.661205
vt 0.990909 0.661205
vt 0.990909 0.811819
vt 0.970898 0.811819
vt 0.970898 0.661205
vt 0.990556 0.821298
vt 0.971252 0.821298
vt 0.858777 0.609480
vt 0.824206 0.616357
vt 0.823573 0.605176
vt 0.855083 0.598908
vt 0.970544 0.821298
vt 0.951240 0.821298
vt 0.889255 0.589413
vt 0.859947 0.608995
vt 0.881797 0.581059
vt 0.950532 0.821298
vt 0.931228 0.821298
vt 0.909733 0.559209
vt 0.890151 0.588517
vt 0.899646 0.554345
vt 0.930521 0.821298
vt 0.911217 0.821298
vt 0.917095 0.523468
vt 0.910218 0.558038
vt 0.905914 0.522834
vt 0.910509 0.821298
vt 0.891205 0.821298
vt 0.910218 0.487631
vt 0.917095 0.522201
vt 0.899646 0.491324
vt 0.890497 0.821298
vt 0.871194 0.821298
vt 0.890151 0.457152
vt 0.909733 0.486460
vt 0.881797 0.464610
vt 0.870486 0.821298
vt 0.851182 0.821298
vt 0.859947 0.436674
vt 0.889255 0.456256
vt 0.855083 0.446761
vt 0.850474 0.821298
vt 0.831170 0.821298
vt 0.824206 0.429312
vt 0.858777 0.436189
vt 0.823573 0.440493
vt 0.830463 0.821298
vt 0.811159 0.821298
vt 0.788369 0.436189
vt 0.822939 0.429312
vt 0.792062 0.446761
vt 0.810451 0.821298
vt 0.791147 0.821298
vt 0.757890 0.456256
vt 0.787198 0.436674
vt 0.765348 0.464610
vt 0.790439 0.821298
vt 0.771135 0.821298
vt 0.737412 0.486460
vt 0.756994 0.457152
vt 0.747499 0.491324
vt 0.770428 0.821298
vt 0.751124 0.821298
vt 0.730050 0.522201
vt 0.736927 0.487631
vt 0.741231 0.522834
vt 0.750416 0.821298
vt 0.731112 0.821298
vt 0.736927 0.558038
vt 0.730050 0.523468
vt 0.747499 0.554345
vt 0.730404 0.821298
vt 0.711101 0.821298
vt 0.756994 0.588517
vt 0.737412 0.559209
vt 0.765348 0.581059
vt 0.710393 0.821298
vt 0.691089 0.821298
vt 0.787198 0.608995
vt 0.757890 0.589413
vt 0.792062 0.598908
vt 0.690381 0.821298
vt 0.671077 0.821298
vt 0.822939 0.616357
vt 0.788369 0.609480
vt 0.263335 0.011794
vt 0.396414 0.011794
vt 0.396414 0.049434
vt 0.263335 0.049434
s 1
usemtl LampMaterial
f 111/1/1 105/2/2 102/3/3 108/4/4
f 120/5/5 112/6/6 107/7/7 122/3/8
f 93/8/9 83/9/10 124/10/11 114/11/12 84/12/13 100/13/9
f 113/5/14 103/6/15 104/7/16 116/3/17
f 16/14/18 61/15/19 66/16/20 9/17/21
f 117/5/22 106/6/23 110/7/24 119/3/25
f 89/8/10 82/9/10 121/18/26 124/19/11 83/12/10 96/13/10
f 19/20/27 57/15/28 62/16/29 15/21/30
f 70/22/31 98/23/31 87/24/32 72/25/32
f 89/26/10 92/27/9 82/26/10
f 1/28/33 2/29/33 43/30/34 42/31/35 37/32/36 39/33/37
f 6/34/38 31/35/39 30/36/39 33/37/39 35/38/39 7/39/40
f 5/34/41 27/35/39 26/36/39 29/37/39 31/40/39 6/39/38
f 26/32/42 41/41/43 46/42/44 29/43/45
f 12/44/9 14/45/9 13/46/9 18/47/9 20/48/9 19/21/9 15/20/9 17/49/9 16/50/9 9/51/9 11/52/9 10/53/9
f 30/31/27 45/42/28 50/41/29 33/32/30
f 8/34/46 23/35/39 22/36/39 25/37/39 27/38/39 5/39/41
f 22/43/47 37/42/36 42/41/35 25/32/48
f 34/32/18 49/41/49 38/42/50 21/43/21
f 13/20/42 53/15/51 58/16/52 18/21/45
f 97/54/13 100/13/9 84/12/13
f 93/55/9 96/56/10 83/55/10
f 85/8/9 81/9/13 118/57/53 121/58/26 82/12/10 92/59/9
f 4/60/54 80/61/39 79/62/39 69/63/39 71/64/39 1/65/54
f 2/66/55 74/67/39 73/68/39 75/69/39 77/70/39 3/71/55
f 3/71/56 77/70/39 76/72/39 78/73/39 80/61/39 4/60/56
f 1/65/33 71/64/39 70/74/39 72/75/39 74/67/39 2/66/33
f 2/28/55 3/29/55 47/30/57 46/31/44 41/32/43 43/33/34
f 5/34/41 6/39/38 59/76/57 58/16/52 53/15/51 55/77/58
f 3/28/56 4/29/56 51/30/59 50/31/29 45/32/28 47/33/57
f 4/28/54 1/29/54 39/30/37 38/31/50 49/32/49 51/33/59
f 6/34/38 7/39/40 63/76/59 62/16/29 57/15/28 59/77/57
f 8/34/46 5/39/41 55/76/58 54/16/60 65/15/61 67/77/62
f 7/34/40 8/39/46 67/76/62 66/16/20 61/15/19 63/77/59
f 7/34/40 35/35/39 34/36/39 21/37/39 23/40/39 8/39/46
f 21/78/39 24/79/39 23/78/39
f 24/79/39 22/41/39 23/78/39
f 25/80/39 28/81/39 27/35/39
f 28/81/39 26/36/39 27/35/39
f 29/80/39 32/81/39 31/35/39
f 32/81/39 30/36/39 31/35/39
f 33/80/39 36/81/39 35/35/39
f 36/81/39 34/36/39 35/35/39
f 37/32/36 40/82/63 39/83/37
f 40/82/63 38/84/50 39/83/37
f 41/85/43 44/86/64 43/87/34
f 44/86/64 42/31/35 43/87/34
f 45/85/28 48/86/65 47/87/57
f 48/86/65 46/31/44 47/87/57
f 49/85/49 52/86/66 51/87/59
f 52/86/66 50/31/29 51/87/59
f 53/88/51 56/89/64 55/90/58
f 56/89/64 54/16/60 55/90/58
f 57/88/28 60/89/67 59/90/57
f 60/89/67 58/16/52 59/90/57
f 61/15/19 64/91/68 63/92/59
f 64/91/68 62/93/29 63/92/59
f 65/88/61 68/89/63 67/90/62
f 68/89/63 66/16/20 67/90/62
f 21/43/21 38/42/50 40/94/63 24/95/69
f 24/95/69 40/94/63 37/42/36 22/43/47
f 41/41/43 26/32/42 28/84/70 44/78/64
f 44/78/64 28/84/70 25/32/48 42/41/35
f 33/32/30 50/41/29 52/78/66 36/84/71
f 36/84/71 52/78/66 49/41/49 34/32/18
f 45/42/28 30/31/27 32/85/72 48/94/65
f 48/94/65 32/85/72 29/43/45 46/42/44
f 12/17/48 54/16/60 56/88/64 14/96/70
f 14/97/70 56/93/64 53/15/51 13/20/42
f 57/15/28 19/20/27 20/97/72 60/93/67
f 60/88/67 20/98/72 18/21/45 58/16/52
f 9/17/21 66/16/20 68/88/63 11/96/69
f 11/99/69 68/93/63 65/15/61 10/14/47
f 61/15/19 16/14/18 17/99/71 64/93/68
f 64/88/68 17/98/71 15/21/30 62/16/29
f 10/14/47 65/15/61 54/16/60 12/17/48
f 69/63/39 70/74/39 71/64/39
f 72/75/39 73/68/39 74/67/39
f 75/25/39 76/100/39 77/100/39
f 78/73/39 79/62/39 80/61/39
f 86/101/73 73/100/73 72/25/32 87/24/32
f 90/101/74 76/100/74 75/25/75 91/24/75
f 94/102/76 79/103/76 78/104/77 95/105/77
f 69/106/78 99/107/78 98/23/31 70/22/31
f 73/22/73 86/23/73 91/24/75 75/25/75
f 76/108/74 90/109/74 95/105/77 78/104/77
f 79/108/76 94/109/76 99/105/78 69/104/78
f 97/110/13 84/9/13 114/111/12 118/11/53 81/12/13 88/13/13
f 86/101/79 87/24/79 88/27/79 85/26/79
f 90/101/80 91/24/80 92/27/80 89/26/80
f 94/102/81 95/105/81 96/56/81 93/55/81
f 98/23/82 99/107/82 100/112/82 97/113/82
f 93/8/83 100/13/83 99/114/83 94/115/83
f 97/110/84 88/13/84 87/114/84 98/115/84
f 85/116/85 92/117/85 91/24/85 86/23/85
f 89/118/86 96/119/86 95/105/86 90/109/86
f 85/26/9 88/27/13 81/26/13
f 101/7/87 102/120/3 103/121/15
f 104/7/16 105/120/2 106/121/23
f 107/7/7 108/120/4 109/121/88
f 110/7/24 111/122/1 112/121/6
f 113/5/14 114/123/12 115/124/89
f 116/3/17 117/125/22 118/126/53
f 119/3/25 120/125/5 121/127/26
f 122/3/8 123/125/90 124/126/11
f 115/124/89 101/128/87 103/6/15 113/5/14
f 102/129/3 105/120/2 104/7/16 103/6/15
f 105/129/2 111/122/1 110/7/24 106/6/23
f 111/129/1 108/120/4 107/7/7 112/6/6
f 108/129/4 102/120/3 101/7/87 109/6/88
f 106/121/23 117/125/22 116/3/17 104/7/16
f 112/121/6 120/125/5 119/3/25 110/7/24
f 109/121/88 123/125/90 122/3/8 107/7/7
f 123/5/90 115/3/89 114/130/12 124/131/11
f 120/5/5 122/3/8 124/126/11 121/132/26
f 117/5/22 119/3/25 121/127/26 118/132/53
f 113/5/14 116/3/17 118/126/53 114/123/12
f 123/5/90 109/6/88 101/7/87 115/3/89
f 137/133/91 140/134/92 128/135/93 126/136/94
f 144/137/95 134/138/96 129/139/97 139/140/98
f 127/141/99 130/142/100 136/143/101 132/144/102
f 133/136/103 135/135/104 143/134/105 142/133/106
f 125/145/107 126/145/94 127/146/99
f 128/136/93 129/147/97 130/148/100
f 131/149/108 132/149/102 133/150/103
f 134/145/96 135/145/104 136/146/101
f 131/149/108 125/151/107 127/141/99 132/144/102
f 126/152/94 128/153/93 130/142/100 127/141/99
f 129/154/97 134/155/96 136/143/101 130/142/100
f 135/156/104 133/150/103 132/144/102 136/143/101
f 141/157/109 131/147/108 133/136/103 142/133/106
f 134/135/96 144/134/95 143/158/105 135/145/104
f 125/147/107 138/157/110 137/133/91 126/136/94
f 139/158/98 129/145/97 128/135/93 140/134/92
f 131/159/108 141/160/109 138/161/110 125/162/107
f 154/163/111 155/164/112 146/165/113 148/166/111 147/167/111 145/168/113 151/169/112 152/170/111 156/171/111 157/172/111 153/173/111
f 160/174/114 150/175/114 146/165/113 155/164/112 161/176/114
f 151/169/112 145/168/113 149/177/114 159/178/114 158/179/114
f 171/180/115 172/164/116 163/165/117 165/166/115 164/167/115 162/181/117 168/182/116 169/183/115 173/171/115 174/172/115 170/173/115
f 177/174/118 167/175/118 163/165/117 172/164/116 178/176/118
f 168/182/116 162/181/117 166/177/118 176/178/118 175/184/118
f 188/163/119 189/185/120 180/186/121 182/166/119 181/167/119 179/168/121 185/187/120 186/188/119 190/189/119 191/190/119 187/173/119
f 194/174/122 184/191/122 180/186/121 189/185/120 195/176/122
f 185/187/120 179/168/121 183/177/122 193/192/122 192/193/122
f 205/194/123 206/195/124 197/196/125 199/197/123 198/198/123 196/199/125 202/200/124 203/201/123 207/202/123 208/203/123 204/204/123
f 211/205/126 201/206/126 197/196/125 206/195/124 212/207/126
f 202/200/124 196/199/125 200/208/126 210/209/126 209/210/126
f 222/211/127 221/212/127 225/203/127 224/213/127 220/214/127 219/215/128 213/216/129 215/217/127 216/218/127 214/219/130 223/220/131
f 228/221/132 229/222/132 223/220/131 214/219/130 218/223/132
f 219/215/128 226/224/133 227/225/133 217/226/133 213/216/129
f 236/227/134 235/228/134 239/203/134 238/229/134 234/230/134 233/231/135 214/232/136 216/233/134 231/234/134 230/235/137 237/236/138
f 242/237/139 243/238/139 237/236/138 230/235/137 232/239/139
f 233/231/135 240/240/140 241/241/140 218/242/140 214/232/136
f 250/243/141 249/244/141 253/203/141 252/245/141 248/246/141 247/247/141 230/248/141 231/249/141 245/250/141 244/251/141 251/252/141
f 256/253/142 257/254/142 251/252/142 244/251/142 246/255/142
f 247/247/143 254/256/143 255/257/143 232/258/143 230/248/143
f 261/259/144 260/260/144 264/203/144 263/261/144 259/262/144 258/263/145 244/264/146 245/265/144 215/266/144 213/267/147 262/268/148
f 267/269/149 268/270/149 262/268/148 213/267/147 217/271/149
f 258/263/145 265/272/150 266/273/150 246/274/150 244/264/146
f 147/275/151 148/276/151 216/276/151 215/275/151
f 152/277/152 151/278/153 219/279/154 220/280/155
f 154/281/156 153/282/157 221/283/158 222/284/159
f 155/285/160 154/286/156 222/287/159 223/288/161
f 156/289/162 152/290/152 220/291/155 224/292/163
f 157/293/164 156/294/162 224/295/163 225/296/164
f 151/297/153 158/298/165 226/299/166 219/300/154
f 159/301/167 149/302/167 217/303/167 227/304/167
f 150/305/167 160/306/167 228/307/167 218/303/167
f 161/308/168 155/309/160 223/310/161 229/311/169
f 158/312/165 159/313/170 227/314/170 226/315/166
f 160/316/171 161/317/168 229/318/169 228/319/171
f 153/320/157 157/321/164 225/322/164 221/323/158
f 164/275/172 165/276/172 231/276/172 216/275/172
f 169/324/173 168/325/174 233/326/175 234/327/176
f 171/328/177 170/329/178 235/330/179 236/331/180
f 172/332/181 171/333/177 236/334/180 237/335/182
f 173/336/183 169/337/173 234/338/176 238/339/184
f 174/340/185 173/341/183 238/342/184 239/343/186
f 168/344/174 175/345/187 240/346/188 233/347/175
f 176/348/189 166/349/189 218/350/189 241/351/189
f 167/352/190 177/348/190 242/351/190 232/353/190
f 178/354/191 172/355/181 237/356/182 243/357/192
f 175/358/187 176/359/193 241/360/193 240/361/188
f 177/360/194 178/362/191 243/363/192 242/364/194
f 170/365/178 174/366/185 239/367/186 235/368/179
f 181/275/195 182/276/195 245/276/195 231/275/195
f 186/369/196 185/370/197 247/371/198 248/372/199
f 188/373/200 187/374/201 249/375/202 250/376/203
f 189/377/204 188/378/200 250/379/203 251/380/204
f 190/381/205 186/382/196 248/383/199 252/384/206
f 191/385/207 190/386/205 252/387/206 253/388/207
f 185/389/208 192/390/209 254/391/210 247/392/208
f 193/393/211 183/305/211 232/394/211 255/395/211
f 184/396/212 194/397/212 256/398/212 246/399/212
f 195/400/213 189/401/214 251/402/214 257/403/215
f 192/404/209 193/405/216 255/406/216 254/407/210
f 194/355/170 195/408/213 257/409/215 256/410/170
f 187/411/201 191/412/207 253/413/207 249/414/202
f 198/275/217 199/276/218 215/276/217 245/275/217
f 203/415/219 202/416/220 258/417/221 259/418/222
f 205/339/223 204/419/224 260/420/225 261/336/226
f 206/421/227 205/422/223 261/423/226 262/424/228
f 207/425/229 203/426/219 259/331/222 263/427/230
f 208/368/231 207/428/229 263/429/230 264/430/232
f 202/431/220 209/432/233 265/433/234 258/434/221
f 210/348/235 200/349/235 246/435/235 266/351/235
f 201/349/236 211/348/236 267/436/236 217/437/236
f 212/438/237 206/439/227 262/440/228 268/441/238
f 209/442/233 210/443/194 266/444/194 265/445/234
f 211/360/193 212/446/237 268/447/238 267/364/193
f 204/448/224 208/449/231 264/450/232 260/451/225
f 319/452/1 313/453/239 310/454/240 316/455/4
f 328/456/241 320/457/6 315/458/7 330/459/242
f 297/460/243 332/461/244 322/462/245 303/463/246
f 321/457/247 311/456/248 312/459/249 324/458/250
f 276/464/114 295/465/251 302/466/252 269/467/114
f 325/468/253 314/469/254 318/470/24 327/471/255
f 303/460/246 322/461/245 326/462/108 283/463/256
f 290/460/257 329/461/258 332/462/244 297/463/243
f 272/472/9 274/473/9 273/474/9 278/475/9 280/476/9 279/477/9 275/478/9 277/479/9 276/480/9 269/481/9 271/482/9 270/483/9
f 279/484/118 288/465/259 296/466/260 275/485/118
f 283/460/256 326/461/108 329/462/258 290/463/257
f 273/464/122 281/465/261 289/466/262 278/467/122
f 281/465/261 284/486/263 285/487/264 287/167/265
f 282/488/266 286/197/267 285/197/264 284/489/263
f 283/490/256 287/491/265 285/491/264 286/491/267
f 288/465/259 291/486/268 292/487/269 294/167/270
f 289/466/262 293/166/271 292/166/269 291/492/268
f 290/493/257 294/491/270 292/491/269 293/491/271
f 295/465/251 298/486/272 299/487/273 301/167/274
f 296/466/260 300/166/275 299/166/273 298/492/272
f 297/493/243 301/491/274 299/491/273 300/491/275
f 302/466/252 305/166/276 306/166/277 308/492/278
f 303/493/246 307/491/279 306/491/277 305/491/276
f 304/494/280 308/495/278 306/496/277 307/497/279
f 281/465/261 273/464/281 274/498/281 284/486/263
f 284/489/263 274/499/282 272/500/282 282/488/266
f 288/465/259 279/484/283 280/501/283 291/486/268
f 291/492/268 280/502/284 278/467/284 289/466/262
f 295/465/251 276/464/285 277/498/285 298/486/272
f 298/492/272 277/503/286 275/485/286 296/466/260
f 269/467/287 302/466/252 308/492/278 271/502/287
f 271/504/288 308/495/278 304/494/280 270/505/288
f 303/460/246 283/463/256 286/491/267 307/506/279
f 307/497/279 286/197/267 282/488/266 304/494/280
f 283/460/256 290/463/257 293/491/271 287/506/265
f 287/167/265 293/166/271 289/466/262 281/465/261
f 290/460/257 297/463/243 300/491/275 294/506/270
f 294/167/270 300/166/275 296/466/260 288/465/259
f 297/460/243 303/463/246 305/491/276 301/506/274
f 301/167/274 305/166/276 302/466/252 295/465/251
f 270/505/126 304/494/280 282/488/266 272/500/126
f 309/507/289 310/507/240 311/508/248
f 312/509/249 313/510/239 314/511/254
f 315/512/7 316/513/4 317/514/88
f 318/515/24 319/516/1 320/517/6
f 321/518/247 322/519/245 323/520/290
f 324/512/250 325/521/253 326/513/108
f 327/522/255 328/523/241 329/524/258
f 330/509/242 331/511/291 332/510/244
f 323/520/290 309/525/289 311/526/248 321/518/247
f 310/454/240 313/453/239 312/527/249 311/528/248
f 313/453/239 319/452/1 318/529/24 314/530/254
f 319/452/1 316/455/4 315/531/7 320/532/6
f 316/455/4 310/454/240 309/533/289 317/534/88
f 314/511/254 325/521/253 324/512/250 312/509/249
f 320/517/6 328/523/241 327/522/255 318/515/24
f 317/514/88 331/511/291 330/509/242 315/512/7
f 331/469/291 323/470/290 322/535/245 332/536/244
f 328/456/241 330/459/242 332/537/244 329/538/258
f 325/468/253 327/471/255 329/539/258 326/540/108
f 321/457/247 324/458/250 326/541/108 322/542/245
f 331/469/291 317/468/88 309/471/289 323/470/290
f 348/543/73 395/544/73 350/545/122 333/546/122
f 335/547/72 356/548/72 359/549/74 336/550/74
f 336/550/74 359/549/74 362/551/118 337/552/118
f 337/552/118 362/551/118 365/553/77 338/554/77
f 338/554/77 365/553/77 368/555/71 339/556/71
f 339/556/71 368/555/71 371/557/76 340/558/76
f 340/558/76 371/557/76 374/559/114 341/560/114
f 341/560/114 374/559/114 377/561/78 342/562/78
f 342/562/78 377/561/78 380/563/69 343/564/69
f 343/564/69 380/563/69 383/565/31 344/566/31
f 344/566/31 383/565/31 386/567/126 345/568/126
f 345/568/126 386/567/126 389/569/32 346/570/32
f 346/570/32 389/569/32 392/571/70 347/572/70
f 347/572/70 392/571/70 395/544/73 348/543/73
f 333/573/122 350/574/122 353/575/75 334/576/75
f 334/576/75 353/575/75 356/548/72 335/547/72
f 353/575/292 350/574/292 351/577/292 354/578/292
f 354/579/293 351/580/293 349/581/293 352/582/293
f 356/548/294 353/575/294 354/583/294 357/584/294
f 357/585/295 354/586/295 352/582/295 355/587/295
f 359/549/296 356/548/296 357/588/296 360/589/296
f 360/590/297 357/591/297 355/587/297 358/592/297
f 362/551/298 359/549/298 360/593/298 363/594/298
f 363/595/299 360/596/299 358/592/299 361/597/299
f 365/553/300 362/551/300 363/598/300 366/599/300
f 366/600/301 363/601/301 361/597/301 364/602/301
f 368/555/302 365/553/302 366/603/302 369/604/302
f 369/605/303 366/606/303 364/602/303 367/607/303
f 371/557/304 368/555/304 369/608/304 372/609/304
f 372/610/305 369/611/305 367/607/305 370/612/305
f 374/559/306 371/557/306 372/613/306 375/614/306
f 375/615/307 372/616/307 370/612/307 373/617/307
f 377/561/308 374/559/308 375/618/308 378/619/308
f 378/620/309 375/621/309 373/617/309 376/622/309
f 380/563/310 377/561/310 378/623/310 381/624/310
f 381/625/311 378/626/311 376/622/311 379/627/311
f 383/565/312 380/563/312 381/628/312 384/629/312
f 384/630/313 381/631/313 379/627/313 382/632/313
f 386/567/314 383/565/314 384/633/314 387/634/314
f 387/635/315 384/636/315 382/632/315 385/637/315
f 389/569/316 386/567/316 387/638/316 390/639/316
f 390/640/317 387/641/317 385/637/317 388/642/317
f 392/571/318 389/569/318 390/643/318 393/644/318
f 393/645/319 390/646/319 388/642/319 391/647/319
f 395/544/320 392/571/320 393/648/320 396/649/320
f 396/650/321 393/651/321 391/647/321 394/652/321
f 350/545/322 395/544/322 396/653/322 351/654/322
f 351/655/323 396/656/323 394/652/323 349/581/323
f 352/582/39 349/581/39 394/652/39 391/647/39 388/642/39 385/637/39 382/632/39 379/627/39 376/622/39 373/617/39 370/612/39 367/607/39 364/602/39 361/597/39 358/592/39 355/587/39
f 397/657/72 398/658/72 400/659/72 399/660/72
f 399/657/71 400/658/71 402/659/71 401/660/71
f 401/657/69 402/658/69 404/659/69 403/660/69
f 403/657/70 404/658/70 398/659/70 397/660/70
